<?xml version="1.0" encoding="UTF-8"?>
<!DOCTYPE svg PUBLIC "-//W3C//DTD SVG 1.1//EN" "http://www.w3.org/Graphics/SVG/1.1/DTD/svg11.dtd">
<!-- Creator: CorelDRAW 2020 (64 Bit) -->
<svg xmlns="http://www.w3.org/2000/svg" xml:space="preserve" width="118.543mm" height="118.533mm" version="1.1" style="shape-rendering:geometricPrecision; text-rendering:geometricPrecision; image-rendering:optimizeQuality; fill-rule:evenodd; clip-rule:evenodd"
viewBox="0 0 1119.3 1119.21"
 xmlns:xlink="http://www.w3.org/1999/xlink"
 xmlns:xodm="http://www.corel.com/coreldraw/odm/2003">
 <defs>
  <style type="text/css">
   <![CDATA[
    .fil0 {fill:#96989A;fill-rule:nonzero}
   ]]>
  </style>
 </defs>
 <g id="Camada_x0020_1">
  <metadata id="CorelCorpID_0Corel-Layer"/>
  <g id="chatbubbles.svg">
   <path class="fil0" d="M71.05 892.3c0,0.17 0,0.5 -0.2,0.95 0.08,-0.3 0.12,-0.62 0.2,-0.95z"/>
   <path class="fil0" d="M1019.03 933.34c-8.22,-0.17 -16.36,-1.88 -23.96,-5l-141.85 -50.29 -1.05 -0.42c-3,-1.25 -6.24,-1.9 -9.5,-1.9 -0.09,0 -0.18,0 -0.27,0 -3.09,0 -6.15,0.57 -9.04,1.65 -3.45,1.3 -34.5,12.97 -67.08,21.91 -17.66,4.85 -79.14,20.66 -128.48,20.66 -126.11,0 -244.03,-48.47 -331.99,-136.48 -86.52,-85.95 -135.18,-202.96 -135.18,-324.94 0,-0.34 0,-0.78 0,-1.12 0,0 0,0 0,0 0,-31.55 3.43,-63.09 10.14,-93.89 21.96,-101.48 80.12,-193.79 163.76,-259.82 85.68,-67.18 191.42,-103.71 300.3,-103.71 0.12,0 0.36,0 0.47,0 130.43,0 251.97,49.97 342.26,140.35 85.34,85.62 132.11,198.19 131.73,316.95 -0.06,88.21 -26.48,174.52 -75.68,247.7l-0.47 0.7 -1.85 2.5c-0.42,0.58 -0.85,1.12 -1.25,1.7l-0.37 0.67c-1.01,1.69 -1.92,3.44 -2.72,5.22l39.32 139.75c1.73,5.76 2.68,11.75 2.8,17.76 0,0.03 0,0.06 0,0.08 0,33.11 -26.85,59.96 -59.96,59.96 -0.02,0 -0.05,0 -0.07,0l-0 0z"/>
   <path class="fil0" d="M669.21 982.78c-5.22,-10.15 -14.61,-17.55 -25.71,-20.23 -14.44,-3.82 -31.28,-3.17 -44.14,-4.12 -121.42,-8.45 -235.82,-60.7 -321.8,-146.8 -76.48,-75.99 -126.24,-174.91 -141.68,-281.6 -3.47,-24.33 -3.47,-30.38 -3.47,-30.38 -0,-22.07 -17.9,-39.96 -39.97,-39.96 -11.47,0 -22.39,4.93 -29.98,13.53l-0 0c0,0 -19.69,21.43 -28.98,42.94 -22.06,50.83 -33.48,105.8 -33.48,161.22 0,75.49 21.16,149.55 60.96,213.67 6.5,10.82 6.5,15.81 5.05,27.05 -6.82,35.25 -18.76,97.43 -24.98,129.68 -0.75,3.81 -1.13,7.7 -1.13,11.58 0,17.58 7.73,34.29 21.12,45.68l1.15 0.97c10.73,8.52 24.06,13.18 37.77,13.19 0.01,-0 0.04,-0 0.05,-0 7.69,0 15.34,-1.53 22.44,-4.47l133.68 -51.59c2.28,-0.87 4.7,-1.31 7.14,-1.31 2.44,0 4.86,0.44 7.14,1.31 52.64,19.59 107.42,29.98 159.34,29.98 0.09,0 0.3,0 0.41,0 64.52,0 128.35,-14.22 186.75,-41.6 13.64,-6.4 34.98,-13.34 47.47,-27.78 5.68,-6.78 8.82,-15.35 8.82,-24.19 0,-5.82 -1.36,-11.57 -3.97,-16.78l0 0z"/>
  </g>
 </g>
</svg>
