<svg id="Camada_1" data-name="Camada 1" xmlns="http://www.w3.org/2000/svg" viewBox="0 0 249.47 181.35"><path d="M193.16,369.33H385.94c.48,0,1,0,1.45,0s1,.06,1.43.11.95.11,1.42.18.93.16,1.39.25.92.2,1.37.32.9.24,1.34.38.88.29,1.32.45.86.33,1.28.51.85.37,1.26.57.82.41,1.22.63.8.44,1.19.68.77.48,1.15.74.75.52,1.11.79.72.56,1.07.85.7.58,1,.89.67.62,1,.94.63.65.94,1,.6.68.89,1,.57.71.84,1.08.54.73.8,1.11.5.76.73,1.15.47.78.69,1.19.43.8.63,1.22.39.83.57,1.25.35.85.51,1.29.3.87.44,1.31.27.89.39,1.35.22.9.31,1.36.18.93.26,1.4.13.94.18,1.41.08.95.11,1.44,0,1,0,1.45V522.33c0,.49,0,1,0,1.45s-.07,1-.11,1.44-.11.95-.18,1.41-.16.94-.26,1.4-.2.91-.31,1.36-.25.9-.39,1.35-.28.88-.44,1.31-.33.86-.51,1.29-.37.84-.57,1.25-.41.82-.63,1.22-.45.8-.69,1.19-.48.78-.73,1.15-.52.75-.8,1.11-.55.73-.84,1.08-.59.69-.89,1-.62.66-.94,1-.65.64-1,.94-.68.61-1,.89-.71.58-1.07.85-.74.54-1.11.79-.76.5-1.15.74-.79.47-1.19.68-.81.43-1.22.63-.83.39-1.26.57-.85.35-1.28.51l-1.32.45c-.44.14-.89.27-1.34.38s-.91.22-1.37.32-.92.18-1.39.25-.94.13-1.42.18-.95.09-1.43.11-1,0-1.45,0H193.16c-.49,0-1,0-1.46,0s-.95-.06-1.43-.11-1-.11-1.41-.18-.94-.16-1.4-.25-.91-.2-1.36-.32-.9-.24-1.35-.38-.88-.29-1.31-.45-.86-.33-1.29-.51-.84-.37-1.25-.57-.82-.41-1.22-.63-.8-.44-1.19-.68-.78-.48-1.15-.74-.75-.52-1.11-.79-.73-.56-1.08-.85-.69-.58-1-.89-.66-.62-1-.94-.64-.65-.94-1-.61-.68-.89-1-.58-.71-.85-1.08-.54-.73-.79-1.11-.5-.76-.74-1.15-.47-.78-.68-1.19-.43-.8-.63-1.22-.39-.83-.57-1.25-.35-.85-.51-1.29-.31-.87-.45-1.31-.27-.89-.38-1.35-.22-.9-.32-1.36-.18-.93-.25-1.4-.13-.94-.18-1.41-.09-1-.11-1.44,0-1,0-1.45V397.68c0-.49,0-1,0-1.45s.06-1,.11-1.44.11-1,.18-1.41.16-.94.25-1.4.2-.91.32-1.36.24-.9.38-1.35.29-.88.45-1.31.33-.86.51-1.29.37-.84.57-1.25.41-.82.63-1.22.44-.8.68-1.19.48-.77.74-1.15.52-.75.79-1.11.56-.73.85-1.08.58-.69.89-1,.62-.66.94-1,.65-.64,1-.94.68-.61,1-.89.71-.58,1.08-.85.73-.53,1.11-.79.76-.5,1.15-.74.78-.46,1.18-.68.81-.43,1.23-.63.83-.39,1.25-.57.85-.35,1.29-.51.87-.31,1.31-.45.89-.26,1.35-.38.9-.22,1.36-.32.93-.18,1.4-.25.94-.13,1.41-.18.95-.09,1.43-.11S192.67,369.33,193.16,369.33Z" transform="translate(-164.81 -369.33)" style="fill:#486666;fill-rule:evenodd"/><path d="M291.71,391.62a17,17,0,0,1,6.17,1.16A16.66,16.66,0,0,1,303,396a16.59,16.59,0,0,1,2.06,2.21,18.18,18.18,0,0,1,1.64,2.55,16.42,16.42,0,0,1,1.16,2.84,16.24,16.24,0,0,1,.64,3.07l-.4.19-.4.2-.41.2-.4.2-.41.2-.4.19-.4.2-.41.2-.29.13-.81.37-1.21.53-1.53.65-1.72.69c-.6.24-1.22.47-1.83.69s-1.23.44-1.82.63-1.18.36-1.72.5l-1.73.44-1.89.47-2,.46-2,.44-1.9.38-1.73.3c-.55.08-1.05.15-1.51.2s-.85.06-1.19.06H279l-.56,0h-.58l-.6,0-.59,0-.59,0c-.1-.25-.2-.5-.29-.76s-.17-.51-.25-.77-.16-.52-.22-.79-.13-.53-.18-.8-.11-.55-.15-.82-.07-.55-.1-.83-.05-.56-.07-.84,0-.57,0-.86a16.64,16.64,0,0,1,.35-3.41,17,17,0,0,1,1-3.18,17.66,17.66,0,0,1,1.56-2.87,17,17,0,0,1,4.58-4.58,16.92,16.92,0,0,1,2.87-1.56,16.72,16.72,0,0,1,6.59-1.33Z" transform="translate(-164.81 -369.33)" style="fill:#fff;fill-rule:evenodd"/><path d="M253.42,410.9c1.17-.08,2.29-.11,3.35-.09s2.08.07,3.06.17,1.91.24,2.83.41,1.79.38,2.66.62,1.71.5,2.55.8,1.67.6,2.5.94,1.66.69,2.51,1.06l2.58,1.15c.81.37,1.63.74,2.49,1.11s1.73.76,2.64,1.14,1.87.77,2.86,1.15,2,.75,3.1,1.12,2.22.72,3.4,1.07,2.43.68,3.73,1,2.67.62,4.11.9,2.94.54,4.52.77l-.89.17-.89.17-.89.16-.89.16-.89.16-.9.16-.89.15-.89.16c-1.51.26-3,.52-4.47.79s-2.94.54-4.37.83-2.84.59-4.22.92-2.72.67-4,1.05-2.57.79-3.78,1.24-2.39.94-3.51,1.48a29.27,29.27,0,0,0-3.17,1.75,23.43,23.43,0,0,0-2.8,2.09c-.81-.8-1.59-1.63-2.33-2.5s-1.44-1.77-2.1-2.7-1.29-1.9-1.87-2.89-1.11-2-1.6-3.06-.93-2.11-1.32-3.21a34.23,34.23,0,0,1-1-3.35c-.3-1.14-.54-2.29-.73-3.47s-.33-2.37-.42-3.58Zm13.67,26.81c.83.69,1.7,1.36,2.59,2s1.81,1.22,2.75,1.77,1.92,1.06,2.91,1.53,2,.9,3.05,1.28,2.09.73,3.17,1,2.18.55,3.29.75,2.24.35,3.39.45,2.3.16,3.47.16a38.12,38.12,0,0,0,13.12-2.3,37.91,37.91,0,0,0,5.88-2.73,38.63,38.63,0,0,0,9.89-8.09,38.49,38.49,0,0,0,6.73-10.93,38.72,38.72,0,0,0,1.92-6.28,24.11,24.11,0,0,1-3.07,2.62,30.71,30.71,0,0,1-3.53,2.19,41.59,41.59,0,0,1-3.93,1.81c-1.36.55-2.78,1-4.24,1.49s-3,.87-4.5,1.25-3.09.72-4.67,1.05-3.18.63-4.79.92l-4.82.85-4.25.75c-1.4.25-2.79.51-4.15.78s-2.7.56-4,.86-2.58.62-3.81,1-2.43.72-3.58,1.12-2.24.85-3.28,1.33a25.05,25.05,0,0,0-3,1.56,19.62,19.62,0,0,0-2.58,1.84Zm63-27.52a1.93,1.93,0,0,1,0-.24,1.93,1.93,0,0,1,0-.24,1.93,1.93,0,0,1,0-.24v-.24c0-.08,0-.16,0-.24v-.72c0-.33,0-.66,0-1l0-1-.06-1-.09-1c0-.32-.07-.64-.11-1s-.08-.63-.13-.94-.1-.63-.15-.94-.11-.62-.18-.93q-1.62-.08-3.09,0c-1,0-1.91.11-2.81.22s-1.74.26-2.56.44-1.61.39-2.39.63-1.52.51-2.26.8-1.47.6-2.2.93-1.45.68-2.19,1.05l-2.24,1.13-2.51,1.26c-.86.43-1.76.86-2.7,1.3s-1.92.86-3,1.29-2.13.85-3.28,1.26-2.38.8-3.68,1.18-2.66.74-4.12,1.08-3,.65-4.64.94-3.37.54-5.22.76c.91.39,1.83.78,2.79,1.16s2,.77,3,1.14,2.11.73,3.24,1.09,2.31.69,3.56,1,2.54.64,3.91.93,2.81.55,4.33.8,3.11.47,4.79.66,3.46.36,5.32.5c1-.29,2-.59,3-.91s1.95-.67,2.88-1,1.84-.76,2.71-1.18,1.71-.87,2.51-1.35a26.15,26.15,0,0,0,2.29-1.54,22.77,22.77,0,0,0,2-1.75,18.13,18.13,0,0,0,1.74-2A17.28,17.28,0,0,0,330.05,410.19Z" transform="translate(-164.81 -369.33)" style="fill:#fff;fill-rule:evenodd"/><rect x="69.83" y="79.35" width="114.24" height="18.54" style="fill:#fff"/><path d="M247.48,464.05v.09s0,.06,0,.09,0,0,0,.08a.19.19,0,0,1,0,.07.14.14,0,0,1,0,.06l0,.06a.61.61,0,0,1,0,.06l-.08.08a.61.61,0,0,1-.14.11,1.91,1.91,0,0,1-.24.17,2.63,2.63,0,0,1-.33.2l-.41.19a3.41,3.41,0,0,1-.48.18,4.41,4.41,0,0,1-.55.15,4.09,4.09,0,0,1-.61.1,4.92,4.92,0,0,1-.67,0,5.35,5.35,0,0,1-1.08-.1,4.28,4.28,0,0,1-1-.29,4.15,4.15,0,0,1-.85-.48,5.59,5.59,0,0,1-.71-.67,4.55,4.55,0,0,1-.56-.84,5.19,5.19,0,0,1-.42-1,7,7,0,0,1-.26-1.18,9.52,9.52,0,0,1-.09-1.34,10,10,0,0,1,.09-1.38,7.39,7.39,0,0,1,.28-1.23,6.47,6.47,0,0,1,.44-1.07,5.22,5.22,0,0,1,.6-.9,5.44,5.44,0,0,1,.73-.71,4.77,4.77,0,0,1,.87-.52,4.59,4.59,0,0,1,1-.32,5.34,5.34,0,0,1,1.08-.11,4.58,4.58,0,0,1,.53,0l.51.07c.17,0,.33.07.48.12a3,3,0,0,1,.45.14l.4.16a3,3,0,0,1,.36.19l.28.18a1,1,0,0,1,.18.14l.1.11.06.07a.14.14,0,0,1,0,.06l0,.06s0,.05,0,.08a.22.22,0,0,1,0,.08.31.31,0,0,1,0,.1v.22a.37.37,0,0,1,0,.11.29.29,0,0,1,0,.09.13.13,0,0,1,0,.08l0,.06,0,0-.06,0h0a.37.37,0,0,1-.16-.05l-.21-.14-.27-.2-.35-.21a4.13,4.13,0,0,0-.42-.22,5.15,5.15,0,0,0-.52-.2,3.31,3.31,0,0,0-.6-.14,5.31,5.31,0,0,0-.72-.05,3.44,3.44,0,0,0-.8.09,3.07,3.07,0,0,0-.74.25,3.15,3.15,0,0,0-1.2,1,4.08,4.08,0,0,0-.45.73,5.37,5.37,0,0,0-.34.88,7.49,7.49,0,0,0-.21,1,8.76,8.76,0,0,0-.07,1.17,10.15,10.15,0,0,0,.06,1.13,6.78,6.78,0,0,0,.2,1,5,5,0,0,0,.31.85,3.86,3.86,0,0,0,.44.71,3.13,3.13,0,0,0,.54.55,3.54,3.54,0,0,0,.67.41,3.66,3.66,0,0,0,.77.25,4.74,4.74,0,0,0,.86.08,3.91,3.91,0,0,0,.7-.05,2.86,2.86,0,0,0,.61-.14l.52-.19.44-.22.36-.22.29-.2a1.13,1.13,0,0,1,.22-.14.45.45,0,0,1,.17-.05h.05l0,0,0,0,0,.05a.14.14,0,0,1,0,.07s0,.06,0,.09,0,.07,0,.11v.14Zm11.71-4.49a11.71,11.71,0,0,1-.08,1.36,9.23,9.23,0,0,1-.25,1.23,5.91,5.91,0,0,1-.4,1.07,5.14,5.14,0,0,1-.58.9,4.2,4.2,0,0,1-.74.72,4.09,4.09,0,0,1-.91.53,5.05,5.05,0,0,1-1.08.34,6.89,6.89,0,0,1-1.24.11,6.78,6.78,0,0,1-1.23-.11,4.61,4.61,0,0,1-1.05-.31,4.14,4.14,0,0,1-.87-.51,3.81,3.81,0,0,1-.7-.69,4.41,4.41,0,0,1-.53-.86,6.38,6.38,0,0,1-.38-1,9.94,9.94,0,0,1-.21-1.2,11.25,11.25,0,0,1-.07-1.33,9.56,9.56,0,0,1,.08-1.34,7.62,7.62,0,0,1,.24-1.21,5.83,5.83,0,0,1,.41-1.06,4.82,4.82,0,0,1,.57-.89,5,5,0,0,1,.74-.71,4.33,4.33,0,0,1,.91-.53,4.54,4.54,0,0,1,1.08-.33,6.17,6.17,0,0,1,1.25-.12,6.56,6.56,0,0,1,1.21.11,4.67,4.67,0,0,1,1,.31,4.84,4.84,0,0,1,.86.5,3.87,3.87,0,0,1,.71.69,4.1,4.1,0,0,1,.54.85,6.27,6.27,0,0,1,.38,1,8.36,8.36,0,0,1,.23,1.17,11.2,11.2,0,0,1,.07,1.32Zm-1.19.1c0-.35,0-.69-.05-1a7.39,7.39,0,0,0-.15-1,4.33,4.33,0,0,0-.26-.86,4.42,4.42,0,0,0-.39-.75,3.15,3.15,0,0,0-.54-.61,3.72,3.72,0,0,0-.68-.47,3.4,3.4,0,0,0-.85-.29,5.34,5.34,0,0,0-1-.1,4.78,4.78,0,0,0-1,.11,3.29,3.29,0,0,0-.85.3,4.24,4.24,0,0,0-.69.48,4.07,4.07,0,0,0-.55.62,4.46,4.46,0,0,0-.4.75,4.81,4.81,0,0,0-.28.86,7.24,7.24,0,0,0-.15.95,8,8,0,0,0-.06,1c0,.36,0,.71,0,1a9.43,9.43,0,0,0,.14,1,5.65,5.65,0,0,0,.26.88,3.34,3.34,0,0,0,.39.75,2.8,2.8,0,0,0,.53.61,3.13,3.13,0,0,0,1.53.76,5.2,5.2,0,0,0,2.08,0,2.87,2.87,0,0,0,.85-.31,3.51,3.51,0,0,0,.7-.49,3.6,3.6,0,0,0,.54-.63,4.28,4.28,0,0,0,.41-.76,5.53,5.53,0,0,0,.27-.87,7.24,7.24,0,0,0,.15-.95c0-.32.05-.66.05-1Zm12.5,5.46a.81.81,0,0,1,0,.16.56.56,0,0,1,0,.12.31.31,0,0,1-.05.1l-.07.08-.09.06-.09,0-.1,0h-.49l-.16,0-.15-.06-.15-.1-.14-.14a1.15,1.15,0,0,1-.14-.17l-.16-.22-.16-.28L266.4,461l-2.1-3.73-.31-.55-.32-.57c-.11-.19-.21-.38-.31-.57l-.29-.55h0v.68c0,.23,0,.46,0,.7v9.1s0,0,0,.06l0,0,0,.05-.05,0-.08,0-.1,0-.12,0h-.3l-.12,0-.1,0-.08,0-.05,0,0-.05,0,0s0,0,0-.06V454.32A.74.74,0,0,1,262,454a.35.35,0,0,1,.13-.18l.17-.09.17,0h.67l.17,0,.14.05.12.08.12.1.12.15.12.18.14.23,1.6,2.85,1.6,2.85c.11.18.21.36.3.53l.28.5.27.49.26.48c.09.16.17.32.26.47l.25.47c.09.15.17.31.25.46l.25.47h0c0-.26,0-.52,0-.79V454a.13.13,0,0,1,0-.06l0,0,0-.05.05,0,.08,0,.09,0h.54l.1,0,.08,0,.05,0,0,.05,0,0v11.22Zm12.24-5.6a10.49,10.49,0,0,1-.09,1.42,7.51,7.51,0,0,1-.29,1.24,5,5,0,0,1-.47,1.05,4.65,4.65,0,0,1-.64.87,4.86,4.86,0,0,1-.82.68,5.46,5.46,0,0,1-1,.49,6.67,6.67,0,0,1-1.19.3,10,10,0,0,1-1.4.1H274.5a.51.51,0,0,1-.17,0l-.17-.1a.31.31,0,0,1-.13-.17.79.79,0,0,1,0-.29V454.32a.74.74,0,0,1,0-.28.3.3,0,0,1,.13-.18.7.7,0,0,1,.17-.09.51.51,0,0,1,.17,0H277a8.7,8.7,0,0,1,1.4.1,5.55,5.55,0,0,1,1.17.31,6.23,6.23,0,0,1,1,.5,5.09,5.09,0,0,1,.79.67,5.69,5.69,0,0,1,.62.84,6.33,6.33,0,0,1,.44,1,6.66,6.66,0,0,1,.27,1.13,8.22,8.22,0,0,1,.09,1.24Zm-1.21.06a8,8,0,0,0-.06-1,6.35,6.35,0,0,0-.2-.93,4.79,4.79,0,0,0-.33-.83,4.42,4.42,0,0,0-.48-.71,3.36,3.36,0,0,0-.62-.57,3.77,3.77,0,0,0-.76-.44,4.18,4.18,0,0,0-1-.27,7,7,0,0,0-1.18-.09h-1.83v9.93H277a7.66,7.66,0,0,0,1.12-.08,4.81,4.81,0,0,0,.94-.22,3.28,3.28,0,0,0,.77-.39,3.22,3.22,0,0,0,.63-.54,3.58,3.58,0,0,0,.49-.71,4.52,4.52,0,0,0,.35-.87,7.5,7.5,0,0,0,.21-1.05,9.49,9.49,0,0,0,.07-1.23Zm13.52,0a9.81,9.81,0,0,1-.09,1.36,7.88,7.88,0,0,1-.24,1.23,5.93,5.93,0,0,1-.41,1.07,4.48,4.48,0,0,1-1.31,1.62,4.33,4.33,0,0,1-.91.53,5.24,5.24,0,0,1-1.08.34,7,7,0,0,1-1.25.11,6.78,6.78,0,0,1-1.23-.11,4.76,4.76,0,0,1-1-.31,4,4,0,0,1-1.57-1.2,5,5,0,0,1-.53-.86,6.37,6.37,0,0,1-.37-1,9.89,9.89,0,0,1-.22-1.2c0-.42-.07-.86-.07-1.33a11.36,11.36,0,0,1,.08-1.34,8.93,8.93,0,0,1,.25-1.21,5.81,5.81,0,0,1,.4-1.06,5.45,5.45,0,0,1,.58-.89,4.53,4.53,0,0,1,.74-.71,4.09,4.09,0,0,1,.91-.53,4.6,4.6,0,0,1,1.07-.33,6.24,6.24,0,0,1,1.25-.12,6.67,6.67,0,0,1,1.22.11,4.54,4.54,0,0,1,1.9.81,4.21,4.21,0,0,1,.71.69,5.14,5.14,0,0,1,.54.85,6.27,6.27,0,0,1,.38,1,8.36,8.36,0,0,1,.22,1.17,11.14,11.14,0,0,1,.08,1.32Zm-1.19.1c0-.35,0-.69-.05-1a7.39,7.39,0,0,0-.15-1,5.11,5.11,0,0,0-.26-.86,4.46,4.46,0,0,0-.4-.75,3.1,3.1,0,0,0-.53-.61,3.72,3.72,0,0,0-.68-.47,3.54,3.54,0,0,0-.85-.29,5.37,5.37,0,0,0-1-.1,4.62,4.62,0,0,0-1,.11,3.29,3.29,0,0,0-.85.3,4.24,4.24,0,0,0-.69.48,3.59,3.59,0,0,0-.55.62,4.5,4.5,0,0,0-.41.75,5.75,5.75,0,0,0-.27.86,9.41,9.41,0,0,0-.16.95c0,.32,0,.65,0,1s0,.71,0,1a9.43,9.43,0,0,0,.14,1,5.65,5.65,0,0,0,.25.88,4.42,4.42,0,0,0,.39.75,3.1,3.1,0,0,0,.53.61,3.29,3.29,0,0,0,.68.47,3.22,3.22,0,0,0,.86.29,4.77,4.77,0,0,0,1,.1,4.72,4.72,0,0,0,1-.11,2.83,2.83,0,0,0,.86-.31,3.17,3.17,0,0,0,.69-.49,3.66,3.66,0,0,0,.55-.63,4.23,4.23,0,0,0,.4-.76,4,4,0,0,0,.27-.87,9.41,9.41,0,0,0,.16-.95c0-.32.05-.66.05-1Zm16.39,5.82a.13.13,0,0,1,0,.06l0,0,0,.05-.06,0-.08,0-.09,0-.13,0h-.29l-.12,0-.1,0-.07,0-.06,0,0-.05,0,0V454.72h0l-2.34,5.42-2.35,5.41,0,0,0,0,0,0-.06,0-.07,0-.09,0h-.42l-.09,0-.06,0-.06,0,0,0,0,0,0,0-2.22-5.41-2.23-5.42h0v10.82l0,0s0,0,0,.05l-.06,0-.08,0-.1,0-.12,0h-.31l-.12,0-.09,0-.08,0,0,0,0-.05a.06.06,0,0,1,0,0,.13.13,0,0,1,0-.06V454.32a1,1,0,0,1,0-.28.37.37,0,0,1,.14-.18.7.7,0,0,1,.17-.09.51.51,0,0,1,.17,0h.83l.19,0a.52.52,0,0,1,.16.06l.15.08.12.11a.64.64,0,0,1,.1.13c0,.05.06.09.09.15a.8.8,0,0,1,.08.16l2,4.74,2,4.74H304l2.05-4.72,2-4.72.1-.2a1.28,1.28,0,0,1,.1-.17.85.85,0,0,1,.11-.14l.12-.11.12-.08.12-.05.14,0h.92l.09,0,.08,0,.08.06a.27.27,0,0,1,.07.08l.06.1a.56.56,0,0,1,0,.12.81.81,0,0,1,0,.16v11.16Zm4.62,0a.13.13,0,0,1,0,.06.08.08,0,0,1,0,0l0,.05-.05,0-.08,0-.09,0-.13,0h-.29l-.13,0-.1,0-.08,0-.05,0,0-.05,0,0V453.87l0-.05,0,0,.06,0,.08,0,.1,0,.11,0h.29l.13,0,.09,0,.08,0a.05.05,0,0,1,.05,0l0,0a.08.08,0,0,1,0,.05.07.07,0,0,1,0,.05v11.56Zm.76-15.08a.38.38,0,0,1,.09-.09l.09-.08.09-.05.09,0,.11,0,.13,0h.47l.13,0,.11,0s.05,0,.06,0a.1.1,0,0,1,0,.05.09.09,0,0,1,0,.07.25.25,0,0,1,0,.07s0,.05-.06.07l-1,1-1.05,1-.09.08-.08.06-.07,0-.08,0-.09,0-.09,0H314l-.11,0s-.05,0-.07,0l0,0s0,0,0-.05a.13.13,0,0,1,0-.06.13.13,0,0,1,0-.07.33.33,0,0,1,.06-.08l.89-1,.89-1Zm11.28,14.72a.81.81,0,0,1,0,.16.56.56,0,0,1,0,.12.31.31,0,0,1-.05.1l-.07.08-.09.06-.09,0-.1,0H326l-.16,0-.15-.06-.15-.1-.14-.14a1.15,1.15,0,0,1-.14-.17l-.16-.22-.16-.28-2.1-3.72-2.1-3.73-.31-.55-.32-.57c-.11-.19-.21-.38-.31-.57l-.29-.55h0v.68c0,.23,0,.46,0,.7v9.1s0,0,0,.06l0,0,0,.05-.05,0-.08,0-.1,0-.12,0h-.3l-.12,0-.1,0-.08,0,0,0,0-.05,0,0s0,0,0-.06V454.32a.74.74,0,0,1,.05-.28.35.35,0,0,1,.13-.18l.17-.09.17,0h.67l.17,0,.14.05.12.08.12.1a1,1,0,0,1,.12.15,1.4,1.4,0,0,1,.12.18l.14.23,1.6,2.85,1.6,2.85c.11.18.21.36.3.53l.28.5.27.49.26.48c.09.16.17.32.26.47l.25.47c.09.15.17.31.25.46l.25.47h0c0-.26,0-.52,0-.79V454a.13.13,0,0,1,0-.06l0,0,0-.05,0,0,.08,0,.09,0h.54l.1,0,.08,0,0,0,0,.05,0,0v11.22Zm4.61.36v.06l0,0s0,0,0,.05l-.06,0-.07,0-.1,0-.12,0h-.3l-.12,0-.1,0-.08,0-.05,0,0-.05,0,0a.13.13,0,0,1,0-.06V453.92a.07.07,0,0,1,0-.05.08.08,0,0,1,0-.05l0,0a.09.09,0,0,1,.07,0l.07,0,.1,0,.12,0h.29l.12,0,.1,0,.07,0,.06,0s0,0,0,0l0,.05v11.61Zm13.09-5.92a11.71,11.71,0,0,1-.08,1.36,9.23,9.23,0,0,1-.25,1.23,5.93,5.93,0,0,1-.41,1.07,4.48,4.48,0,0,1-1.31,1.62,4.33,4.33,0,0,1-.91.53,5.05,5.05,0,0,1-1.08.34,7,7,0,0,1-1.24.11,6.81,6.81,0,0,1-1.24-.11,4.34,4.34,0,0,1-1.92-.82,4.15,4.15,0,0,1-.7-.69,5,5,0,0,1-.53-.86,6.37,6.37,0,0,1-.37-1,8.3,8.3,0,0,1-.21-1.2,11.19,11.19,0,0,1-.08-1.33,11.36,11.36,0,0,1,.08-1.34,8.93,8.93,0,0,1,.25-1.21,5.81,5.81,0,0,1,.4-1.06,5.45,5.45,0,0,1,.58-.89,4.53,4.53,0,0,1,.74-.71,4.09,4.09,0,0,1,.91-.53,4.6,4.6,0,0,1,1.07-.33,6.24,6.24,0,0,1,1.25-.12,6.67,6.67,0,0,1,1.22.11,4.54,4.54,0,0,1,1.9.81,4.21,4.21,0,0,1,.71.69,4.56,4.56,0,0,1,.54.85,6.27,6.27,0,0,1,.38,1,8.36,8.36,0,0,1,.22,1.17,11.14,11.14,0,0,1,.08,1.32Zm-1.19.1c0-.35,0-.69-.05-1a7.39,7.39,0,0,0-.15-1,4.33,4.33,0,0,0-.26-.86,3.84,3.84,0,0,0-.4-.75,3.1,3.1,0,0,0-.53-.61,3.72,3.72,0,0,0-.68-.47,3.54,3.54,0,0,0-.85-.29,5.37,5.37,0,0,0-1-.1,4.62,4.62,0,0,0-1,.11,3.29,3.29,0,0,0-.85.3,4.24,4.24,0,0,0-.69.48,3.59,3.59,0,0,0-.55.62,4.5,4.5,0,0,0-.41.75,5.75,5.75,0,0,0-.27.86,9.41,9.41,0,0,0-.16.95c0,.32,0,.65,0,1s0,.71,0,1a9.43,9.43,0,0,0,.14,1,4.74,4.74,0,0,0,.26.88,3.77,3.77,0,0,0,.38.75,3.1,3.1,0,0,0,.53.61,3.29,3.29,0,0,0,.68.47,3.22,3.22,0,0,0,.86.29,4.77,4.77,0,0,0,1,.1,4.88,4.88,0,0,0,1-.11,2.87,2.87,0,0,0,.85-.31,3.51,3.51,0,0,0,.7-.49,4.08,4.08,0,0,0,.54-.63,4.23,4.23,0,0,0,.4-.76,4,4,0,0,0,.27-.87,9.41,9.41,0,0,0,.16-.95C343.4,460.34,343.42,460,343.42,459.66Z" transform="translate(-164.81 -369.33)" style="fill:#486666;fill-rule:evenodd"/><path d="M234.44,526.84l.22,0a.31.31,0,0,0,.14-.17,1.82,1.82,0,0,0,.1-.43c0-.2,0-.46.07-.82.07-.87.2-1.93.4-3.17s.45-2.65.78-4.22.74-3.29,1.23-5.16,1.07-3.88,1.74-6c.41-1.26.78-2.37,1.15-3.48s.77-2.22,1.22-3.46,1-2.63,1.63-4.3,1.42-3.62,2.37-6c.6-1.55,1.25-3.1,1.87-4.61s1.23-3,1.76-4.36,1-2.67,1.29-3.82a11.67,11.67,0,0,0,.51-3,3.52,3.52,0,0,0-.11-1,2.16,2.16,0,0,0-.32-.72,1.33,1.33,0,0,0-.54-.46,1.6,1.6,0,0,0-.75-.16,4.1,4.1,0,0,0-1.55.38,11.81,11.81,0,0,0-2,1.16,29.6,29.6,0,0,0-2.47,1.95c-.91.78-1.89,1.69-3,2.74q-2.35,2.26-4.72,4.9c-1.58,1.76-3.17,3.65-4.8,5.69s-3.28,4.23-5,6.6-3.45,4.89-5.26,7.61l-2,3.15c-.43.69-.7,1.1-1,1.51l-1,1.56L214.46,512a10.36,10.36,0,0,1,.51-1.65c.32-.9.77-2.11,1.3-3.47s1.11-2.88,1.71-4.4,1.22-3,1.78-4.4c2-4.65,3.51-8.38,4.76-11.4s2.18-5.34,2.87-7.14,1.15-3.08,1.43-4a8.38,8.38,0,0,0,.4-2.13,2.54,2.54,0,0,0-.08-.66,1.22,1.22,0,0,0-.23-.47.88.88,0,0,0-.36-.28,1.21,1.21,0,0,0-.48-.09l-.31,0-.34.08a2.79,2.79,0,0,0-.37.14,3.6,3.6,0,0,0-.39.2c-1.37.85-3.52,3.09-6,6.07s-5.39,6.68-8.22,10.47-5.59,7.66-7.88,10.95-4.11,6-5,7.51l-1.12,1.77-1.11,1.77-1.12,1.77L195,514.42a4.51,4.51,0,0,1-.87,1.44c-.52.71-1.22,1.6-1.92,2.54a32.05,32.05,0,0,0-1.92,2.81,5.36,5.36,0,0,0-.9,2.23,2.13,2.13,0,0,0,0,.37,1.63,1.63,0,0,0,.1.29.56.56,0,0,0,.17.2.45.45,0,0,0,.23.07h.1l.11,0,.11-.06.12-.08a2.36,2.36,0,0,0,.31-.38c.14-.2.32-.47.53-.8s.45-.69.7-1.1l.81-1.3c1.74-2.86,3.78-6.11,6-9.54s4.59-7,7-10.6,4.9-7.12,7.29-10.42,4.72-6.38,6.84-9q1.71-2.12,3.06-3.64c.9-1,1.69-1.87,2.36-2.54a17.29,17.29,0,0,1,1.67-1.48,2.09,2.09,0,0,1,1-.48l.12,0,.08.08a.53.53,0,0,1,.05.15,1.52,1.52,0,0,1,0,.23,4.77,4.77,0,0,1-.23,1.25c-.15.55-.4,1.27-.75,2.22s-.83,2.14-1.43,3.63-1.34,3.29-2.24,5.45c-.51,1.23-1.18,2.8-1.93,4.55s-1.56,3.71-2.38,5.69-1.64,4-2.39,5.89-1.43,3.67-2,5.17c-.2.53-.48,1.23-.8,2l-1,2.52c-.36.87-.72,1.76-1.05,2.59s-.61,1.59-.82,2.22c0,.13-.07.26-.1.4s-.06.25-.08.38a2.25,2.25,0,0,0-.06.36,1.82,1.82,0,0,0,0,.32,1.66,1.66,0,0,0,0,.33.85.85,0,0,0,.1.27.58.58,0,0,0,.18.17.44.44,0,0,0,.26.07.61.61,0,0,0,.25-.06,1,1,0,0,0,.28-.2,1.72,1.72,0,0,0,.3-.34,3,3,0,0,0,.27-.51c.22-.53.68-1.46,1.28-2.63s1.35-2.57,2.17-4,1.69-3,2.55-4.49,1.7-2.83,2.45-3.94c1.67-2.57,3.39-5.05,5.11-7.43s3.47-4.66,5.21-6.81,3.46-4.18,5.16-6.05,3.39-3.61,5-5.17c.78-.72,1.53-1.39,2.25-2s1.42-1.15,2.06-1.6a11,11,0,0,1,1.8-1.05,3.59,3.59,0,0,1,1.45-.39,1.7,1.7,0,0,1,.4,0,.73.73,0,0,1,.32.15.8.8,0,0,1,.22.33,1.86,1.86,0,0,1,.08.59,15.68,15.68,0,0,1-.85,3.94c-.51,1.64-1.2,3.51-1.9,5.29s-1.41,3.48-2,4.78-1,2.22-1.07,2.43c-.79,1.95-1.44,3.59-2,5s-1,2.66-1.47,3.82-.81,2.23-1.19,3.35-.76,2.29-1.18,3.63c-.54,1.77-1.1,3.68-1.63,5.61s-1,3.87-1.48,5.69-.81,3.55-1.07,5a22.45,22.45,0,0,0-.41,3.57,5.15,5.15,0,0,0,0,.59,2.17,2.17,0,0,0,.1.45.83.83,0,0,0,.16.28.36.36,0,0,0,.24.09Zm20-15.2a1.05,1.05,0,0,1-.4-.07.83.83,0,0,1-.34-.2.86.86,0,0,1-.23-.35,1.19,1.19,0,0,1-.09-.49,7.74,7.74,0,0,1,.64-2.06c.34-.78.78-1.65,1.25-2.53s.95-1.76,1.39-2.58a22.21,22.21,0,0,0,1.05-2.24v0s0,0,0,0h-.15c-.54.23-1.17.45-1.83.66s-1.37.39-2.06.57-1.36.33-2,.46l-1.61.34a3.07,3.07,0,0,1,.17.31,3.62,3.62,0,0,1,.13.35c0,.12,0,.25.07.38a2.86,2.86,0,0,1,0,.42,7,7,0,0,1-.45,2.29,10.76,10.76,0,0,1-1.13,2.28,7.79,7.79,0,0,1-1.5,1.76,2.64,2.64,0,0,1-1.56.7,1,1,0,0,1-.43-.09.91.91,0,0,1-.34-.25,1.24,1.24,0,0,1-.22-.43,2.13,2.13,0,0,1-.08-.6,9,9,0,0,1,.59-2.45,16.91,16.91,0,0,1,1.2-2.5,14,14,0,0,1,1.35-2c.43-.5.81-.81,1.06-.83l.2,0,.26.07.26.09a.91.91,0,0,1,.17.08c.41-.07,1-.17,1.56-.3s1.3-.3,2-.48,1.41-.4,2.08-.62a15.3,15.3,0,0,0,1.82-.73l.14-.05.14,0a.8.8,0,0,1,.15,0h.14a.86.86,0,0,1,.28,0,.57.57,0,0,1,.22.11.4.4,0,0,1,.15.19.61.61,0,0,1,.06.28,1,1,0,0,1,0,.17,1.42,1.42,0,0,1,0,.2c0,.06-.05.13-.07.2l-.09.23-1.06,2.19c-.41.85-.85,1.78-1.26,2.67s-.8,1.75-1.1,2.45a9.33,9.33,0,0,0-.56,1.53A12.28,12.28,0,0,0,256,509c.66-.83,1.42-1.84,2.19-2.82s1.54-1.93,2.23-2.66a4.19,4.19,0,0,1,1.7-1.31h.31a.94.94,0,0,1,.52.14,1,1,0,0,1,.31.37,2.21,2.21,0,0,1,.15.55,4.68,4.68,0,0,1,0,.66c0,.13,0,.31,0,.51s0,.42-.05.67,0,.52,0,.8,0,.56,0,.85a7.52,7.52,0,0,0,.06,1.1,2.7,2.7,0,0,0,.24.87,1.26,1.26,0,0,0,.48.58,1.52,1.52,0,0,0,.81.23,6.05,6.05,0,0,0,2.28-.55,15.88,15.88,0,0,0,2.41-1.32c.79-.52,1.53-1.08,2.17-1.59s1.17-1,1.54-1.35a.09.09,0,0,1,0-.06.1.1,0,0,1,.05,0l.06,0h.13l.06,0s0,0,0,0a.11.11,0,0,1,0,.06.2.2,0,0,1,0,.07.16.16,0,0,1,0,.09.41.41,0,0,1-.05.09l-.08.1c-.26.24-.73.68-1.35,1.2s-1.38,1.12-2.2,1.68a17.35,17.35,0,0,1-2.58,1.51,6.36,6.36,0,0,1-2.49.65,2.26,2.26,0,0,1-1.28-.38,2.14,2.14,0,0,1-.75-.95,5,5,0,0,1-.36-1.36,13.66,13.66,0,0,1-.09-1.6v-.43l0-.43V504a2.13,2.13,0,0,0,0-.27.93.93,0,0,0-.05-.21.39.39,0,0,0-.1-.14.24.24,0,0,0-.14-.05.52.52,0,0,0-.24.08,2.21,2.21,0,0,0-.31.23l-.4.4c-.15.16-.32.36-.51.58l-.84,1.14c-.32.44-.67.94-1.08,1.49s-.87,1.14-1.39,1.78-1.09,1.32-1.73,2a3,3,0,0,1-.3.23,2.48,2.48,0,0,1-.32.17l-.31.1a1.63,1.63,0,0,1-.31,0ZM246,510.53a.22.22,0,0,1-.12,0,.2.2,0,0,1-.08-.08.46.46,0,0,1,0-.14,1,1,0,0,1,0-.2,7.45,7.45,0,0,1,.4-1.58,19.14,19.14,0,0,1,.78-1.87c.31-.63.64-1.24,1-1.77a10,10,0,0,1,.94-1.32l.27,0a.24.24,0,0,1,.15,0,.26.26,0,0,1,.08.15c0,.08,0,.2,0,.37a6.29,6.29,0,0,1-.39,1.93,14,14,0,0,1-.93,2.1,10.18,10.18,0,0,1-1.11,1.68c-.36.43-.69.69-.93.69ZM266.17,524c.15,0,.32-.14.48-.37a4.89,4.89,0,0,0,.46-.89c.15-.34.28-.71.4-1.05s.2-.65.25-.87a43.38,43.38,0,0,1,1.31-4.43c.67-2,1.54-4.44,2.55-7.11s2.15-5.57,3.34-8.48,2.45-5.83,3.67-8.53c.3-.63.62-1.27.94-1.91s.67-1.28,1-1.92l1.08-1.93c.37-.65.74-1.29,1.12-1.93l2.41-.06,3.91,0,5.16,0h11.65l2.05,0c.58,0,1,0,1.38.05.84.07,1.52.15,2.07.23a9.91,9.91,0,0,1,1.29.29,3.15,3.15,0,0,1,.75.34,1.63,1.63,0,0,1,.4.38,3.13,3.13,0,0,0,.33.31,1.94,1.94,0,0,0,.33.2,1.32,1.32,0,0,0,.31.12l.31,0a1.42,1.42,0,0,0,.48-.08,1.09,1.09,0,0,0,.38-.22,1,1,0,0,0,.25-.31.94.94,0,0,0,.08-.36h0a2.25,2.25,0,0,1,0-.36.45.45,0,0,0-.16-.31,1.81,1.81,0,0,0-.64-.27c-.34-.08-.81-.17-1.49-.26-.92-.11-1.94-.18-3-.24s-2.19-.09-3.33-.11l-3.44,0-3.35-.05H290.82l-2.57,0-2.52,0-2.5.06c.52-.86,1.09-1.77,1.68-2.71s1.19-1.9,1.78-2.86,1.17-1.93,1.7-2.88,1-1.86,1.42-2.73c.07-.13.14-.26.19-.38l.16-.34a2,2,0,0,0,.1-.29.7.7,0,0,0,0-.23.37.37,0,0,0,0-.15.35.35,0,0,0-.11-.13.56.56,0,0,0-.19-.09,1.23,1.23,0,0,0-.29,0c-.3,0-.67.3-1.09.79a16.18,16.18,0,0,0-1.32,1.9c-.46.75-.91,1.56-1.34,2.33s-.8,1.49-1.11,2l-.66,1.26-.75,1.46c-.26.5-.53,1-.79,1.54l-.76,1.53-9.71.63-6.52.41-4.8.32-4.56.32h-.17l-.11,0-.06,0a.13.13,0,0,1,0-.06l0-.08,0-.07,0-.08,0-.08a.59.59,0,0,0-.07-.29,1.1,1.1,0,0,0-.18-.26,1.19,1.19,0,0,0-.29-.18.93.93,0,0,0-.34-.06,4,4,0,0,0-.74.16c-.35.1-.79.23-1.22.38s-.87.29-1.21.43a4.42,4.42,0,0,0-.72.31.6.6,0,0,0-.07.14,1.38,1.38,0,0,0-.08.2c0,.08-.05.16-.07.25a2.89,2.89,0,0,0,0,.29.65.65,0,0,0,.06.29.57.57,0,0,0,.2.21,1.15,1.15,0,0,0,.37.12,3,3,0,0,0,.56,0h.37l.43,0,.51-.06.59-.06c2.22-.16,4.49-.36,6.79-.57l6.95-.69c2.32-.23,4.64-.46,6.94-.66s4.56-.36,6.77-.47l-.18.41-.2.38-.2.36-.18.35a8.35,8.35,0,0,1-.9,1.41c-.36.45-.74.89-1.1,1.3s-.68.78-.92,1.1a1.63,1.63,0,0,0-.39.83.33.33,0,0,0,0,.15.33.33,0,0,0,.07.13l.14.09.2.08.12,0,.08.06a.41.41,0,0,1,.05.09.37.37,0,0,1,0,.12,1.08,1.08,0,0,1-.06.28c0,.12-.09.28-.16.47l-.3.72-.46,1c-.66,1.51-1.44,3.35-2.28,5.34s-1.72,4.14-2.58,6.26-1.7,4.24-2.44,6.16-1.4,3.67-1.89,5l-.54,1.34c-.24.57-.51,1.24-.77,1.92s-.51,1.35-.69,1.93a5.63,5.63,0,0,0-.3,1.39,1.32,1.32,0,0,0,.09.28.75.75,0,0,0,.11.2.45.45,0,0,0,.13.11.41.41,0,0,0,.16,0Zm15.16-19.53,0,0h-.07a1.61,1.61,0,0,1,.39-.61,11.2,11.2,0,0,1,.93-1c.37-.37.77-.76,1.16-1.1a11.25,11.25,0,0,1,1.06-.84l.39-.26.34-.17a1.33,1.33,0,0,1,.26-.11l.2,0h.09a.09.09,0,0,1,.07,0,.1.1,0,0,1,0,.05.11.11,0,0,1,0,.08,1.12,1.12,0,0,1-.2.51,4.21,4.21,0,0,1-.6.73,9.6,9.6,0,0,1-1,.9,14.33,14.33,0,0,1-1.42,1l-.59.34-.49.29-.36.19a.76.76,0,0,1-.19.07Zm1.37,6.45a6.56,6.56,0,0,1-1.6-.19,3.72,3.72,0,0,1-1.22-.57,2.62,2.62,0,0,1-.79-1,3.07,3.07,0,0,1-.28-1.33c0-.1,0-.2,0-.3a1.54,1.54,0,0,1,0-.3c0-.1,0-.2.05-.3a2.46,2.46,0,0,1,.07-.29,8.73,8.73,0,0,1,1.23-2.44,19,19,0,0,1,2-2.48,15.09,15.09,0,0,1,2.28-1.91,3.83,3.83,0,0,1,1.91-.78,1.45,1.45,0,0,1,.4.12.7.7,0,0,1,.29.22,1,1,0,0,1,.18.37,2.58,2.58,0,0,1,.05.53,3,3,0,0,1-.66,1.66,8.62,8.62,0,0,1-1.6,1.67,10.19,10.19,0,0,1-2,1.28,4.34,4.34,0,0,1-1.78.52h-.2l-.09,0H281a.84.84,0,0,0-.3,0,.47.47,0,0,0-.21.11,1.08,1.08,0,0,0-.18.25c-.06.1-.12.23-.2.4l-.15.46c0,.16-.08.31-.11.46s-.05.3-.07.45,0,.3,0,.44a2.16,2.16,0,0,0,.19.94,1.79,1.79,0,0,0,.55.67,2.56,2.56,0,0,0,.86.42,4.45,4.45,0,0,0,1.14.14,10.53,10.53,0,0,0,3.31-.58,17.32,17.32,0,0,0,3.13-1.43,29,29,0,0,0,2.78-1.82c.85-.61,1.62-1.22,2.27-1.74l.09-.06.08,0,.07,0h.16l.07,0,0,0a.14.14,0,0,1,0,.06,1.78,1.78,0,0,1-.44.54c-.28.28-.67.64-1.16,1s-1.08.85-1.74,1.31-1.4.94-2.18,1.4-1.25.67-1.83.93a14.31,14.31,0,0,1-1.64.63,11.73,11.73,0,0,1-1.48.36,9,9,0,0,1-1.33.11Zm27.89,13.21a1.47,1.47,0,0,1-.89-.27,2,2,0,0,1-.62-.79,4.76,4.76,0,0,1-.36-1.25,10.43,10.43,0,0,1-.12-1.66c0-.35,0-.71,0-1.09s.05-.79.1-1.21.09-.86.15-1.33.13-1,.2-1.46c.38-2.25.75-4.34,1.16-6.43s.86-4.18,1.37-6.45,1.12-4.69,1.83-7.46,1.52-5.88,2.5-9.49c.51-1.93.95-3.56,1.3-4.91s.63-2.44.84-3.3.36-1.51.46-2a6.24,6.24,0,0,0,.14-.9V474h0a0,0,0,0,1,0,0s0,0,0,0v-.06a5.61,5.61,0,0,1,.17-1c.11-.43.25-.94.41-1.42s.33-1,.48-1.34a2.78,2.78,0,0,1,.4-.74l.11-.11a.38.38,0,0,1,.12-.09l.12-.05h.14a.59.59,0,0,1,.22.05.67.67,0,0,1,.3.4.94.94,0,0,1,0,.3,16.89,16.89,0,0,1-.38,2.08c-.23,1-.56,2.41-.95,4s-.84,3.3-1.32,5.11-1,3.69-1.5,5.51q-1.68,6-3,11.23c-.87,3.46-1.62,6.64-2.24,9.52s-1.11,5.44-1.45,7.69a50.52,50.52,0,0,0-.61,5.73,9.5,9.5,0,0,0,.05,1,3.58,3.58,0,0,0,.16.77,1.18,1.18,0,0,0,.32.51.74.74,0,0,0,.49.18,1.68,1.68,0,0,0,.41-.07,2.88,2.88,0,0,0,.49-.22,3.72,3.72,0,0,0,.59-.37c.21-.15.43-.33.68-.54a19.48,19.48,0,0,0,1.66-1.7c.63-.73,1.39-1.67,2.43-3s2.38-3.18,4.15-5.62,4-5.51,6.78-9.44c1.43-2,2.77-3.83,4.07-5.57s2.54-3.38,3.77-5,2.46-3.11,3.7-4.63,2.52-3,3.84-4.55q3.18-3.72,5.64-6.44c1.65-1.82,3.06-3.31,4.25-4.49a28.86,28.86,0,0,1,2.94-2.62,3.47,3.47,0,0,1,1.71-.86h.2l.14,0a.17.17,0,0,1,.08.06.11.11,0,0,1,0,.08.29.29,0,0,1-.06.15.9.9,0,0,1-.17.17l-.26.17a2.28,2.28,0,0,1-.35.17,5,5,0,0,0-1.07.7c-.44.35-1,.82-1.56,1.4s-1.27,1.26-2,2-1.55,1.68-2.43,2.66c-2.17,2.42-4.17,4.69-6.08,6.95s-3.76,4.51-5.62,6.88-3.76,4.85-5.78,7.59-4.17,5.74-6.56,9.12c-2.62,3.69-4.75,6.66-6.51,9s-3.16,4.16-4.31,5.48a15.6,15.6,0,0,1-2.83,2.71,3.65,3.65,0,0,1-2.08.72Zm27.62-19.66a.76.76,0,0,0,.19-.07l.36-.19.49-.29.6-.34a15.37,15.37,0,0,0,1.41-1,9.6,9.6,0,0,0,1-.9,4.21,4.21,0,0,0,.6-.73,1,1,0,0,0,.2-.51.19.19,0,0,0,0-.08l-.05-.05a.09.09,0,0,0-.07,0h-.09l-.2,0a1.33,1.33,0,0,0-.26.11,2.62,2.62,0,0,0-.33.17l-.4.26a11.25,11.25,0,0,0-1.06.84c-.39.34-.79.73-1.16,1.1a12.88,12.88,0,0,0-.93,1,1.61,1.61,0,0,0-.39.61h.07l0,0Zm1.37,6.45a9,9,0,0,0,1.33-.11,11.73,11.73,0,0,0,1.48-.36,14.31,14.31,0,0,0,1.64-.63q.87-.39,1.83-.93c.78-.46,1.52-.93,2.18-1.4s1.25-.91,1.74-1.31a13.89,13.89,0,0,0,1.16-1,1.78,1.78,0,0,0,.44-.54.14.14,0,0,0,0-.06l0,0-.07,0h-.16l-.07,0-.08,0-.09.06c-.65.52-1.42,1.13-2.27,1.74a27.82,27.82,0,0,1-2.78,1.82,17.32,17.32,0,0,1-3.13,1.43,10.48,10.48,0,0,1-3.31.58,4.45,4.45,0,0,1-1.14-.14,2.56,2.56,0,0,1-.86-.42,1.79,1.79,0,0,1-.55-.67,2.32,2.32,0,0,1-.19-.94c0-.14,0-.29,0-.44s0-.3.07-.45.07-.3.11-.46l.15-.46c.08-.17.14-.3.2-.4a1.08,1.08,0,0,1,.18-.25.53.53,0,0,1,.21-.11.87.87,0,0,1,.3,0h.1l.1,0h.19a4.34,4.34,0,0,0,1.78-.52,10.56,10.56,0,0,0,2-1.28,9.26,9.26,0,0,0,1.6-1.67,3.12,3.12,0,0,0,.66-1.66,2,2,0,0,0-.06-.53,1,1,0,0,0-.18-.37.64.64,0,0,0-.29-.22,1.45,1.45,0,0,0-.4-.12,3.83,3.83,0,0,0-1.91.78,15.09,15.09,0,0,0-2.28,1.91,19,19,0,0,0-2,2.48,8.73,8.73,0,0,0-1.23,2.44c0,.09-.05.19-.07.29s0,.2-.05.3,0,.2,0,.3,0,.2,0,.3a3.07,3.07,0,0,0,.28,1.33,2.62,2.62,0,0,0,.79,1,3.72,3.72,0,0,0,1.22.57,6.56,6.56,0,0,0,1.6.19Zm8.49,1.94c.18,0,.64-.62,1.24-1.55s1.33-2.18,2.08-3.42,1.51-2.49,2.15-3.42,1.18-1.55,1.46-1.55c.1,0,.2.13.32.33s.25.48.43.78a5.59,5.59,0,0,0,.63.92,3,3,0,0,0,1,.75.84.84,0,0,0,.19.09l.23.05.28,0h.31a8.86,8.86,0,0,0,1.21-.09,12,12,0,0,0,1.3-.26,7.29,7.29,0,0,0,1.17-.41,3,3,0,0,0,.83-.57h0l-.38.12c-.23.08-.56.18-.95.28a13,13,0,0,1-1.28.27,8.13,8.13,0,0,1-1.37.13h-.41l-.37,0-.31-.06-.24-.08a2.2,2.2,0,0,1-.77-.71,8,8,0,0,1-.67-1.09c-.21-.37-.39-.73-.56-1s-.31-.44-.43-.44a.8.8,0,0,0-.41.13,2.87,2.87,0,0,0-.65.57,12.35,12.35,0,0,0-1,1.32c-.42.59-.92,1.36-1.53,2.36-.31.49-.61,1-.9,1.48l-.76,1.32-.53.95-.2.36h0v0h0a4.34,4.34,0,0,1,.47-1.17c.3-.61.72-1.4,1.23-2.3h0c.51-.9,1.1-1.91,1.73-2.95s1.3-2.13,2-3.17a1.69,1.69,0,0,1,.2-.24l.2-.18.2-.17a3.11,3.11,0,0,0,.2-.25l.09-.14.07-.14a.93.93,0,0,0,0-.13.5.5,0,0,0,0-.12.76.76,0,0,0-.05-.27.74.74,0,0,0-.13-.21.46.46,0,0,0-.2-.13.6.6,0,0,0-.24-.05l-.15,0-.17.08-.17.12a1,1,0,0,0-.17.18,17.06,17.06,0,0,0-1.26,1.94c-.64,1.05-1.43,2.42-2.21,3.86s-1.53,2.94-2.1,4.24a9.65,9.65,0,0,0-.93,3.08.77.77,0,0,0,0,.27.48.48,0,0,0,.09.19.29.29,0,0,0,.13.12.23.23,0,0,0,.14,0Zm14.27-1.54a.66.66,0,0,1-.3-.07.52.52,0,0,1-.2-.19,1.93,1.93,0,0,1-.13-.32c0-.13,0-.28-.08-.44v-.13a10.47,10.47,0,0,1,.42-2.52,21.11,21.11,0,0,1,1.16-3.19,16.11,16.11,0,0,1,1.76-3,7.07,7.07,0,0,1,2.23-2l.26-.13.2-.1.23-.08.33-.08a1.26,1.26,0,0,1,.3,0,.63.63,0,0,1,.22.07l.16.1.16.1a2.33,2.33,0,0,1,.47.4,4.25,4.25,0,0,1,.43.57,4.16,4.16,0,0,1,.32.63,1.73,1.73,0,0,1,.15.57,11.16,11.16,0,0,1-1.12,2c-.57.86-1.28,1.86-2,2.85s-1.52,1.95-2.21,2.76a14.49,14.49,0,0,1-1.67,1.74l-.31.21-.28.15-.25.09a.93.93,0,0,1-.22,0Zm6.41,10.51a.67.67,0,0,1-.3-.06.55.55,0,0,1-.18-.16.73.73,0,0,1-.09-.22,2.38,2.38,0,0,1-.05-.26c0-.1,0-.2,0-.3a2.36,2.36,0,0,1,0-.28l0-.26c0-.08,0-.16,0-.22v-.14a20.49,20.49,0,0,1,.64-3.6c.41-1.76,1-4,1.8-6.46s1.72-5.16,2.8-7.85a72.7,72.7,0,0,1,3.64-7.81c.12-.23.24-.45.33-.66s.18-.4.25-.58a3.53,3.53,0,0,0,.16-.44,1,1,0,0,0,.06-.26h0v0h0l-1,1.48-1,1.48-1,1.48-1,1.49-1.11,1.61c-.3.43-.51.76-.68,1a3.27,3.27,0,0,0-.33.64,1.18,1.18,0,0,0-.09.47V502c0,.09,0,.15,0,.2s0,.08,0,.12v.34a1.48,1.48,0,0,1,0,.31.88.88,0,0,1-.1.26.55.55,0,0,1-.17.17.41.41,0,0,1-.23.06H371l-.11,0-.15-.05a.45.45,0,0,0-.19.06,1.26,1.26,0,0,0-.24.2,4.54,4.54,0,0,0-.31.36,6,6,0,0,0-.36.53l-1.9,2.76c-.63.91-1.27,1.78-1.89,2.53a11.58,11.58,0,0,1-1.84,1.86,3,3,0,0,1-1.75.72,1.5,1.5,0,0,1-.6-.12,1.37,1.37,0,0,1-.52-.39,2,2,0,0,1-.36-.71,4,4,0,0,1-.16-1.08,16.76,16.76,0,0,1,.52-3.21,20.21,20.21,0,0,1,1.12-3.14,16.1,16.1,0,0,1,1.55-2.72,8.73,8.73,0,0,1,1.81-1.94,8,8,0,0,1,.76-.48,6.62,6.62,0,0,1,.73-.33,5.45,5.45,0,0,1,.68-.19,3.4,3.4,0,0,1,.61-.06,3,3,0,0,1,1.26.38,3.23,3.23,0,0,1,.84.69c.23.24.4.49.55.67s.26.3.36.3a2.41,2.41,0,0,0,.43-.46c.25-.3.6-.77,1.06-1.41s1-1.44,1.7-2.44,1.43-2.18,2.29-3.56c1.21-1.91,2.15-3.44,2.88-4.67s1.25-2.19,1.65-3,.67-1.34.89-1.83.39-.88.59-1.29c.75-1.49,1.43-2.75,2-3.81s1.15-1.9,1.63-2.56a8.18,8.18,0,0,1,1.24-1.44,1.48,1.48,0,0,1,.89-.46l.22,0a.75.75,0,0,1,.18.07.37.37,0,0,1,.13.12.36.36,0,0,1,0,.19,1.37,1.37,0,0,1-.1.28c-.07.15-.18.38-.36.72s-.43.81-.77,1.43-.8,1.41-1.37,2.39c-2,3.44-3.67,6.47-5.19,9.25s-2.86,5.33-4.05,7.78-2.24,4.8-3.2,7.22-1.84,4.91-2.68,7.62c-.51,1.63-.88,2.93-1.16,4s-.45,1.84-.56,2.47a13.82,13.82,0,0,0-.21,1.5c0,.4,0,.73-.06,1.07s0,.69-.07,1a5,5,0,0,1-.16.81,1.69,1.69,0,0,1-.22.55.38.38,0,0,1-.3.2ZM381,504.44a.76.76,0,0,0,.19-.07l.36-.19.49-.29.59-.34a15.61,15.61,0,0,0,1.42-1,9.6,9.6,0,0,0,1-.9,4.21,4.21,0,0,0,.6-.73,1.12,1.12,0,0,0,.2-.51.19.19,0,0,0,0-.08.1.1,0,0,0,0-.05.09.09,0,0,0-.07,0h-.09l-.2,0a1.4,1.4,0,0,0-.27.11l-.33.17-.39.26a11.25,11.25,0,0,0-1.06.84c-.39.34-.79.73-1.16,1.1a13.21,13.21,0,0,0-.94,1,1.68,1.68,0,0,0-.38.61h.07l0,0Zm1.37,6.45a9,9,0,0,0,1.33-.11,11.6,11.6,0,0,0,1.47-.36,14.43,14.43,0,0,0,1.65-.63c.58-.26,1.18-.57,1.82-.93.79-.46,1.52-.93,2.18-1.4s1.26-.91,1.75-1.31.88-.76,1.16-1a1.78,1.78,0,0,0,.44-.54.14.14,0,0,0,0-.06l0,0-.07,0h-.16l-.07,0-.08,0-.09.06c-.65.52-1.42,1.13-2.27,1.74a29,29,0,0,1-2.78,1.82,17.64,17.64,0,0,1-3.13,1.43,10.53,10.53,0,0,1-3.31.58A4.45,4.45,0,0,1,381,510a2.38,2.38,0,0,1-.86-.42,1.7,1.7,0,0,1-.55-.67,2.16,2.16,0,0,1-.19-.94c0-.14,0-.29,0-.44s0-.3.07-.45.07-.3.11-.46l.15-.46c.08-.17.14-.3.2-.4a1.08,1.08,0,0,1,.18-.25.49.49,0,0,1,.2-.11.91.91,0,0,1,.3,0h.1l.1,0h.2a4.38,4.38,0,0,0,1.78-.52,10.19,10.19,0,0,0,2-1.28,8.62,8.62,0,0,0,1.6-1.67,3,3,0,0,0,.66-1.66,2,2,0,0,0-.06-.53.84.84,0,0,0-.17-.37.7.7,0,0,0-.29-.22,1.52,1.52,0,0,0-.41-.12,3.83,3.83,0,0,0-1.9.78,15.09,15.09,0,0,0-2.28,1.91,19,19,0,0,0-2.05,2.48,8.73,8.73,0,0,0-1.23,2.44,2.46,2.46,0,0,0-.07.29l-.06.3c0,.1,0,.2,0,.3s0,.2,0,.3a3.07,3.07,0,0,0,.28,1.33,2.62,2.62,0,0,0,.79,1,3.62,3.62,0,0,0,1.22.57A6.56,6.56,0,0,0,382.32,510.89Z" transform="translate(-164.81 -369.33)" style="fill:#fff;fill-rule:evenodd"/></svg>