<?xml version="1.0" encoding="UTF-8"?>
<!DOCTYPE svg PUBLIC "-//W3C//DTD SVG 1.1//EN" "http://www.w3.org/Graphics/SVG/1.1/DTD/svg11.dtd">
<!-- Creator: CorelDRAW 2020 (64 Bit) -->
<svg xmlns="http://www.w3.org/2000/svg" xml:space="preserve" width="101.686mm" height="118.533mm" version="1.1" style="shape-rendering:geometricPrecision; text-rendering:geometricPrecision; image-rendering:optimizeQuality; fill-rule:evenodd; clip-rule:evenodd"
viewBox="0 0 639.89 745.91"
 xmlns:xlink="http://www.w3.org/1999/xlink"
 xmlns:xodm="http://www.corel.com/coreldraw/odm/2003">
 <defs>
  <style type="text/css">
   <![CDATA[
    .fil0 {fill:#96989A;fill-rule:nonzero}
   ]]>
  </style>
 </defs>
 <g id="Camada_x0020_1">
  <metadata id="CorelCorpID_0Corel-Layer"/>
  <g id="notifications.svg">
   <path class="fil0" d="M626.44 515c-2.76,-3.33 -5.48,-6.66 -8.14,-9.87 -36.63,-44.31 -58.79,-71.05 -58.79,-196.47 0,-64.93 -15.53,-118.21 -46.15,-158.17 -22.58,-29.52 -53.1,-51.91 -93.32,-68.46 -0.52,-0.29 -0.98,-0.67 -1.37,-1.12 -14.47,-48.45 -54.06,-80.9 -98.72,-80.9 -44.65,0 -84.23,32.45 -98.7,80.85 -0.39,0.43 -0.84,0.8 -1.35,1.08 -93.87,38.64 -139.49,112.79 -139.49,226.67 0,125.47 -22.13,152.21 -58.79,196.47 -2.66,3.21 -5.38,6.48 -8.14,9.87 -8.7,10.5 -13.48,23.72 -13.48,37.37 0,8.74 1.97,17.39 5.73,25.27 10.27,21.64 32.17,35.08 57.16,35.08l514.3 -0c24.88,0 46.62,-13.42 56.93,-34.97 3.8,-7.91 5.78,-16.58 5.78,-25.36 0,-13.63 -4.76,-26.85 -13.45,-37.35l0 0z"/>
   <path class="fil0" d="M319.95 745.91c49.02,-0.03 94.05,-26.98 117.28,-70.14 0.51,-0.96 0.78,-2.03 0.78,-3.12 0,-3.68 -2.98,-6.66 -6.66,-6.66 -0,0 -0.01,0 -0.01,0l-222.74 0c-0.01,-0 -0.02,-0 -0.02,-0 -3.68,0 -6.66,2.98 -6.66,6.66 0,1.08 0.27,2.15 0.77,3.11 23.21,43.15 68.26,70.11 117.26,70.15l0.01 0z"/>
  </g>
 </g>
</svg>
