<?xml version="1.0" encoding="UTF-8"?>
<!DOCTYPE svg PUBLIC "-//W3C//DTD SVG 1.1//EN" "http://www.w3.org/Graphics/SVG/1.1/DTD/svg11.dtd">
<!-- Creator: CorelDRAW 2020 (64 Bit) -->
<svg xmlns="http://www.w3.org/2000/svg" xml:space="preserve" width="114.736mm" height="78.8502mm" version="1.1" style="shape-rendering:geometricPrecision; text-rendering:geometricPrecision; image-rendering:optimizeQuality; fill-rule:evenodd; clip-rule:evenodd"
viewBox="0 0 6804.14 4676.01"
 xmlns:xlink="http://www.w3.org/1999/xlink"
 xmlns:xodm="http://www.corel.com/coreldraw/odm/2003">
 <defs>
  <style type="text/css">
   <![CDATA[
    .fil1 {fill:black}
    .fil0 {fill:black;fill-rule:nonzero}
   ]]>
  </style>
 </defs>
 <g id="Camada_x0020_1">
  <metadata id="CorelCorpID_0Corel-Layer"/>
  <g>
   <path class="fil0" d="M6010.92 277.65l-5217.71 0 0 -277.65 5217.71 0 0 0 0 277.65zm793.22 515.94l-276.91 0 0 0 -0.68 -26.48 -2 -26.07 -3.28 -25.67 -4.55 -25.25 -5.77 -24.83 -6.95 -24.34 -8.12 -23.86 -9.25 -23.35 -10.35 -22.8 -11.43 -22.24 -12.47 -21.62 -13.47 -20.96 -14.46 -20.29 -15.39 -19.56 -16.3 -18.8 -17.18 -18.02 -18.02 -17.19 -18.81 -16.31 -19.57 -15.39 -20.3 -14.46 -21 -13.5 -21.63 -12.48 -22.24 -11.43 -22.83 -10.36 -23.4 -9.27 -23.9 -8.14 -24.4 -6.96 -24.87 -5.79 -25.29 -4.54 -25.73 -3.3 -26.12 -2 -26.54 -0.68 0 -277.65 40.59 1.03 40.14 3.08 39.61 5.06 39.03 7.02 38.35 8.91 37.63 10.75 36.86 12.54 36.01 14.26 35.13 15.95 34.2 17.58 33.2 19.15 32.14 20.66 31.07 22.13 29.95 23.57 28.76 24.94 27.53 26.25 26.25 27.53 24.94 28.76 23.57 29.95 22.14 31.08 20.68 32.18 19.15 33.23 17.58 34.21 15.96 35.16 14.29 36.06 12.55 36.9 10.76 37.69 8.91 38.39 7.03 39.07 5.08 39.67 3.08 40.21 1.03 40.65 0 0zm-276.91 3088.82l0 -3088.82 276.91 0 0 3088.82 0 0 -276.91 0zm-516.31 793.6l0 -277.65 0 0 26.54 -0.68 26.12 -2 25.73 -3.3 25.29 -4.54 24.87 -5.79 24.4 -6.96 23.9 -8.14 23.4 -9.27 22.83 -10.36 22.24 -11.43 21.63 -12.48 21 -13.5 20.3 -14.46 19.57 -15.39 18.81 -16.31 18.02 -17.19 17.18 -18.02 16.3 -18.8 15.39 -19.56 14.46 -20.29 13.47 -20.96 12.47 -21.62 11.43 -22.24 10.35 -22.8 9.25 -23.35 8.12 -23.86 6.95 -24.34 5.77 -24.83 4.55 -25.25 3.28 -25.67 2 -26.07 0.68 -26.48 276.91 0 -1.03 40.65 -3.08 40.21 -5.08 39.67 -7.03 39.07 -8.91 38.39 -10.76 37.69 -12.55 36.9 -14.29 36.06 -15.96 35.16 -17.58 34.21 -19.15 33.23 -20.68 32.18 -22.14 31.08 -23.57 29.95 -24.94 28.76 -26.25 27.53 -27.53 26.25 -28.76 24.94 -29.95 23.57 -31.07 22.13 -32.14 20.66 -33.2 19.15 -34.2 17.58 -35.13 15.95 -36.01 14.26 -36.86 12.54 -37.63 10.75 -38.35 8.91 -39.03 7.02 -39.61 5.06 -40.14 3.08 -40.59 1.03 0 0zm-5217.71 -277.65l5217.71 0 0 277.65 -5217.71 0 0 0 0 -277.65zm-793.22 -515.94l276.91 0 0 0 0.68 26.48 2 26.07 3.28 25.67 4.55 25.25 5.77 24.83 6.95 24.34 8.12 23.86 9.25 23.35 10.35 22.8 11.43 22.24 12.47 21.62 13.47 20.96 14.46 20.29 15.39 19.56 16.3 18.8 17.18 18.02 18.02 17.19 18.81 16.31 19.57 15.39 20.3 14.46 21 13.5 21.63 12.48 22.24 11.43 22.83 10.36 23.4 9.27 23.9 8.14 24.4 6.96 24.87 5.79 25.29 4.54 25.73 3.3 26.12 2 26.54 0.68 0 277.65 -40.59 -1.03 -40.14 -3.08 -39.61 -5.06 -39.03 -7.02 -38.35 -8.91 -37.63 -10.75 -36.86 -12.54 -36.01 -14.26 -35.13 -15.95 -34.2 -17.58 -33.2 -19.15 -32.14 -20.66 -31.07 -22.13 -29.95 -23.57 -28.76 -24.94 -27.53 -26.25 -26.25 -27.53 -24.94 -28.76 -23.57 -29.95 -22.14 -31.08 -20.68 -32.18 -19.15 -33.23 -17.58 -34.21 -15.96 -35.16 -14.29 -36.06 -12.55 -36.9 -10.76 -37.69 -8.91 -38.39 -7.03 -39.07 -5.08 -39.67 -3.08 -40.21 -1.03 -40.65 0 0zm276.91 -3088.82l0 3088.82 -276.91 0 0 -3088.82 0 0 276.91 0zm516.31 -793.6l0 277.65 0 0 -26.54 0.68 -26.12 2 -25.73 3.3 -25.29 4.54 -24.87 5.79 -24.4 6.96 -23.9 8.14 -23.4 9.27 -22.83 10.36 -22.24 11.43 -21.63 12.48 -21 13.5 -20.3 14.46 -19.57 15.39 -18.81 16.31 -18.02 17.19 -17.18 18.02 -16.3 18.8 -15.39 19.56 -14.46 20.29 -13.47 20.96 -12.47 21.62 -11.43 22.24 -10.35 22.8 -9.25 23.35 -8.12 23.86 -6.95 24.34 -5.77 24.83 -4.55 25.25 -3.28 25.67 -2 26.07 -0.68 26.48 -276.91 0 1.03 -40.65 3.08 -40.21 5.08 -39.67 7.03 -39.07 8.91 -38.39 10.76 -37.69 12.55 -36.9 14.29 -36.06 15.96 -35.16 17.58 -34.21 19.15 -33.23 20.68 -32.18 22.14 -31.08 23.57 -29.95 24.94 -28.76 26.25 -27.53 27.53 -26.25 28.76 -24.94 29.95 -23.57 31.07 -22.13 32.14 -20.66 33.2 -19.15 34.2 -17.58 35.13 -15.95 36.01 -14.26 36.86 -12.54 37.63 -10.75 38.35 -8.91 39.03 -7.02 39.61 -5.06 40.14 -3.08 40.59 -1.03 0 0z"/>
  </g>
  <rect class="fil1" x="831.35" y="681.09" width="1285.36" height="3313.82"/>
  <rect class="fil1" x="2508.34" y="681.09" width="1285.36" height="1004.19"/>
  <rect class="fil1" x="2508.34" y="2910.4" width="1285.36" height="1084.52"/>
  <rect class="fil1" x="2508.34" y="2091.98" width="1285.36" height="411.72"/>
  <polygon class="fil1" points="4587.01,681.1 5872.37,681.1 5872.37,2134.66 4587.01,2134.66 "/>
  <polygon class="fil1" points="5872.37,2541.35 5872.37,3994.92 4587.01,3994.92 4587.01,2541.35 "/>
 </g>
</svg>
