<?xml version="1.0" encoding="UTF-8"?>
<!DOCTYPE svg PUBLIC "-//W3C//DTD SVG 1.1//EN" "http://www.w3.org/Graphics/SVG/1.1/DTD/svg11.dtd">
<!-- Creator: CorelDRAW 2020 (64 Bit) -->
<svg xmlns="http://www.w3.org/2000/svg" xml:space="preserve" width="62.5406mm" height="46.5036mm" version="1.1" style="shape-rendering:geometricPrecision; text-rendering:geometricPrecision; image-rendering:optimizeQuality; fill-rule:evenodd; clip-rule:evenodd"
viewBox="0 0 378.4 281.37"
 xmlns:xlink="http://www.w3.org/1999/xlink"
 xmlns:xodm="http://www.corel.com/coreldraw/odm/2003">
 <defs>
  <style type="text/css">
   <![CDATA[
    .str0 {stroke:black;stroke-width:25.17;stroke-miterlimit:22.9256}
    .fil1 {fill:none}
    .fil2 {fill:black}
    .fil0 {fill:black;fill-rule:nonzero}
   ]]>
  </style>
 </defs>
 <g id="Camada_x0020_1">
  <metadata id="CorelCorpID_0Corel-Layer"/>
  <path class="fil0" d="M284.4 281.37l-202.36 0c-5.29,0 -10.63,-0.56 -15.94,-1.63 -5.4,-1.08 -10.55,-2.66 -15.41,-4.68 -4.97,-2.06 -9.72,-4.62 -14.21,-7.62 -4.57,-3.05 -8.73,-6.45 -12.42,-10.14 -7.54,-7.54 -13.64,-16.58 -17.81,-26.64 -4.02,-9.69 -6.25,-20.28 -6.25,-31.34l0 -97.49 20.68 0 0 97.49c0,8.32 1.65,16.23 4.63,23.42 3.11,7.49 7.68,14.25 13.37,19.94 2.89,2.89 6,5.45 9.27,7.64 3.27,2.18 6.84,4.09 10.66,5.68 3.78,1.57 7.64,2.77 11.53,3.55 3.73,0.75 7.71,1.14 11.9,1.14l202.36 0 0 20.68z"/>
  <rect class="fil1 str0" x="47.26" y="12.59" width="318.55" height="221.52" rx="34.78" ry="34.78"/>
  <circle class="fil2" cx="206.53" cy="123.35" r="55.32"/>
  <path class="fil2" d="M59.41 166.12c30.56,0 55.32,24.77 55.32,55.32 0,4.36 -0.5,8.59 -1.46,12.66l-31.24 0c-19.13,0 -34.78,-15.65 -34.78,-34.78l0 -31.86c3.91,-0.88 7.98,-1.34 12.15,-1.34zm54.69 -153.54c0.42,2.75 0.64,5.56 0.64,8.42 0,30.56 -24.77,55.32 -55.32,55.32 -4.18,0 -8.24,-0.47 -12.15,-1.34l0 -27.62c0,-19.13 15.65,-34.78 34.78,-34.78l32.06 0zm251.71 63.47c-1.82,0.18 -3.66,0.27 -5.53,0.27 -30.56,0 -55.32,-24.77 -55.32,-55.32 0,-2.86 0.22,-5.68 0.64,-8.42l25.43 0c19.13,0 34.78,15.65 34.78,34.78l0 28.69zm-10.36 92.65c3.54,0 7,0.34 10.36,0.97l0 29.64c0,19.13 -15.65,34.78 -34.78,34.78l-29.98 0c-0.6,-3.27 -0.92,-6.63 -0.92,-10.08 0,-30.56 24.77,-55.32 55.32,-55.32z"/>
 </g>
</svg>
