<?xml version="1.0" encoding="UTF-8"?>
<!DOCTYPE svg PUBLIC "-//W3C//DTD SVG 1.1//EN" "http://www.w3.org/Graphics/SVG/1.1/DTD/svg11.dtd">
<!-- Creator: CorelDRAW 2020 (64 Bit) -->
<svg xmlns="http://www.w3.org/2000/svg" xml:space="preserve" width="110.072mm" height="110.077mm" version="1.1" style="shape-rendering:geometricPrecision; text-rendering:geometricPrecision; image-rendering:optimizeQuality; fill-rule:evenodd; clip-rule:evenodd"
viewBox="0 0 1198.97 1199.03"
 xmlns:xlink="http://www.w3.org/1999/xlink"
 xmlns:xodm="http://www.corel.com/coreldraw/odm/2003">
 <defs>
  <style type="text/css">
   <![CDATA[
    .fil0 {fill:#96989A;fill-rule:nonzero}
   ]]>
  </style>
 </defs>
 <g id="Camada_x0020_1">
  <metadata id="CorelCorpID_0Corel-Layer"/>
  <g id="person-circle-outline.svg">
   <path class="fil0" d="M607.87 0.06c-337.14,-4.55 -612.37,270.68 -607.82,607.82 4.5,323.33 267.77,586.61 591.1,591.1 337.2,4.61 612.37,-270.62 607.76,-607.76 -4.44,-323.39 -267.71,-586.66 -591.04,-591.16zm364.34 943.14c-2.18,2.36 -5.25,3.7 -8.46,3.7 -3.63,0 -7.06,-1.71 -9.23,-4.62 -25.75,-33.67 -57.4,-62.61 -93.21,-85.26 -73.4,-47.11 -166.37,-73.05 -261.79,-73.05 -95.42,0 -188.4,25.94 -261.77,73.03 -35.83,22.61 -67.48,51.59 -93.23,85.25 -2.18,2.91 -5.6,4.62 -9.23,4.62 -3.21,0 -6.28,-1.34 -8.46,-3.7 -84.51,-91.26 -132.51,-210.62 -134.54,-334.98 -4.69,-280.47 225.44,-515.21 506,-515.9 280.56,-0.69 508.47,227.13 508.47,507.23 0,0.14 0,0.26 0,0.38 0,127.26 -48.12,249.95 -134.54,343.29l0.01 0.01z"/>
   <path class="fil0" d="M599.52 276.73c-56.83,0 -108.22,21.3 -144.73,60 -36.52,38.7 -54.76,92.22 -50.64,149.66 8.36,113.12 96,205.34 195.37,205.34 99.37,0 186.84,-92.22 195.37,-205.31 4.27,-56.89 -13.83,-109.92 -50.95,-149.35 -36.66,-38.91 -87.96,-60.35 -144.42,-60.35z"/>
  </g>
 </g>
</svg>
