<?xml version="1.0" encoding="UTF-8"?>
<!DOCTYPE svg PUBLIC "-//W3C//DTD SVG 1.1//EN" "http://www.w3.org/Graphics/SVG/1.1/DTD/svg11.dtd">
<!-- Creator: CorelDRAW 2020 (64 Bit) -->
<svg xmlns="http://www.w3.org/2000/svg" xml:space="preserve" width="124.779mm" height="124.379mm" version="1.1" style="shape-rendering:geometricPrecision; text-rendering:geometricPrecision; image-rendering:optimizeQuality; fill-rule:evenodd; clip-rule:evenodd"
viewBox="0 0 3918.09 3905.55"
 xmlns:xlink="http://www.w3.org/1999/xlink"
 xmlns:xodm="http://www.corel.com/coreldraw/odm/2003">
 <defs>
  <style type="text/css">
   <![CDATA[
    .fil2 {fill:black}
    .fil1 {fill:#F58634;fill-rule:nonzero}
    .fil0 {fill:black;fill-rule:nonzero}
   ]]>
  </style>
 </defs>
 <g id="Camada_x0020_1">
  <metadata id="CorelCorpID_0Corel-Layer"/>
  <path class="fil0" d="M2725.96 495.29c-0.03,-0.55 -0.04,-0.68 0,0z"/>
  <path class="fil0" d="M1231.29 498.92l0.14 -2.34c0.03,-1 -0.03,-0.01 -0.12,1.41l-0.02 0.92z"/>
  <path class="fil1" d="M1205.81 584.43c0.03,-0.3 0.01,-0.23 0,0z"/>
  <path class="fil1" d="M1367.7 378.39c-1.27,1.11 -2.14,1.86 0.04,0.05l-0.04 -0.05z"/>
  <polygon class="fil1" points="1367.98,378.14 1367.7,378.39 1367.74,378.44 1368.03,378.21 "/>
  <path class="fil1" d="M1517.38 563.96c-0.23,0.22 -0.15,0.19 0.05,0.06l-0.05 -0.06z"/>
  <polygon class="fil1" points="1368.82,377.45 1368.82,377.41 1368.38,377.8 "/>
  <path class="fil1" d="M1382.63 359.63c-0.11,0.25 -0.17,0.37 0.03,0.02l-0.03 -0.02z"/>
  <path class="fil1" d="M1216.63 22.48l-0.03 0.02c-0.24,-0.43 -0.13,-0.26 0.03,-0.02z"/>
  <polygon class="fil1" points="1216.64,22.48 1216.7,22.6 "/>
  <path class="fil1" d="M0.85 0.14c-0.15,-0.08 -0.13,-0.06 0,0z"/>
  <path class="fil1" d="M0.37 0.16c-0.6,-0.26 -0.37,-0.16 0,0z"/>
  <path class="fil1" d="M356.4 1376.32l0.01 0.06 0.04 -0.01c-0.18,-0.75 -0.35,-1.52 -0.05,-0.06z"/>
  <path class="fil1" d="M1149.78 1168.69c0.46,0.21 0.3,0.14 0,0z"/>
  <g>
   <path class="fil0" d="M3478.1 449.42l-2722.37 0 0 -146.28 2722.37 0 0 0 0 146.28zm439.99 293.74l-146.22 0 0 0 -0.39 -15.08 -1.14 -14.85 -1.87 -14.62 -2.59 -14.39 -3.28 -14.14 -3.96 -13.87 -4.63 -13.6 -5.27 -13.3 -5.89 -12.98 -6.51 -12.66 -7.09 -12.31 -7.67 -11.94 -8.23 -11.55 -8.76 -11.13 -9.28 -10.7 -9.77 -10.25 -10.25 -9.77 -10.71 -9.28 -11.13 -8.76 -11.55 -8.23 -11.94 -7.68 -12.31 -7.1 -12.66 -6.51 -12.99 -5.89 -13.3 -5.27 -13.6 -4.63 -13.88 -3.97 -14.14 -3.28 -14.39 -2.59 -14.63 -1.87 -14.85 -1.14 -15.09 -0.39 0 -146.28 22.52 0.57 22.28 1.71 21.98 2.82 21.65 3.89 21.28 4.94 20.88 5.96 20.44 6.95 19.98 7.91 19.49 8.85 18.96 9.75 18.42 10.62 17.84 11.46 17.24 12.28 16.61 13.07 15.95 13.83 15.27 14.56 14.57 15.27 13.83 15.95 13.07 16.61 12.28 17.24 11.47 17.84 10.62 18.42 9.75 18.96 8.85 19.5 7.91 19.99 6.96 20.44 5.97 20.89 4.94 21.28 3.89 21.65 2.82 21.99 1.71 22.28 0.57 22.53 0 0zm-146.22 2722.37l0 -2722.37 146.22 0 0 2722.37 0 0 -146.22 0zm-293.77 440.02l0 -146.28 0 0 15.09 -0.39 14.85 -1.14 14.63 -1.87 14.39 -2.59 14.14 -3.28 13.88 -3.97 13.6 -4.63 13.3 -5.27 12.99 -5.89 12.66 -6.51 12.31 -7.1 11.94 -7.68 11.55 -8.23 11.13 -8.76 10.71 -9.28 10.25 -9.77 9.77 -10.25 9.28 -10.7 8.76 -11.13 8.23 -11.55 7.67 -11.94 7.09 -12.31 6.51 -12.66 5.89 -12.98 5.27 -13.3 4.63 -13.6 3.96 -13.87 3.28 -14.14 2.59 -14.39 1.87 -14.62 1.14 -14.85 0.39 -15.08 146.22 0 -0.57 22.53 -1.71 22.28 -2.82 21.99 -3.89 21.65 -4.94 21.28 -5.97 20.89 -6.96 20.44 -7.91 19.99 -8.85 19.5 -9.75 18.96 -10.62 18.42 -11.47 17.84 -12.28 17.24 -13.07 16.61 -13.83 15.95 -14.57 15.27 -15.27 14.56 -15.95 13.83 -16.61 13.07 -17.24 12.28 -17.84 11.46 -18.42 10.62 -18.96 9.75 -19.49 8.85 -19.98 7.91 -20.44 6.95 -20.88 5.96 -21.28 4.94 -21.65 3.89 -21.98 2.82 -22.28 1.71 -22.52 0.57 0 0zm-2722.37 -146.28l2722.37 0 0 146.28 -2722.37 0 0 0 0 -146.28zm-439.99 -293.74l146.22 0 0 0 0.39 15.08 1.14 14.85 1.87 14.62 2.59 14.39 3.28 14.14 3.96 13.87 4.63 13.6 5.27 13.3 5.89 12.98 6.51 12.66 7.09 12.31 7.67 11.94 8.23 11.55 8.76 11.13 9.28 10.7 9.77 10.25 10.25 9.77 10.71 9.28 11.13 8.76 11.55 8.23 11.94 7.68 12.31 7.1 12.66 6.51 12.99 5.89 13.3 5.27 13.6 4.63 13.88 3.97 14.14 3.28 14.39 2.59 14.63 1.87 14.85 1.14 15.09 0.39 0 146.28 -22.52 -0.57 -22.28 -1.71 -21.98 -2.82 -21.65 -3.89 -21.28 -4.94 -20.88 -5.96 -20.44 -6.95 -19.98 -7.91 -19.49 -8.85 -18.96 -9.75 -18.42 -10.62 -17.84 -11.46 -17.24 -12.28 -16.61 -13.07 -15.95 -13.83 -15.27 -14.56 -14.57 -15.27 -13.83 -15.95 -13.07 -16.61 -12.28 -17.24 -11.47 -17.84 -10.62 -18.42 -9.75 -18.96 -8.85 -19.5 -7.91 -19.99 -6.96 -20.44 -5.97 -20.89 -4.94 -21.28 -3.89 -21.65 -2.82 -21.99 -1.71 -22.28 -0.57 -22.53 0 0zm146.22 -2722.37l0 2722.37 -146.22 0 0 -2722.37 0 0 146.22 0zm293.77 -440.02l0 146.28 0 0 -15.09 0.39 -14.85 1.14 -14.63 1.87 -14.39 2.59 -14.14 3.28 -13.88 3.97 -13.6 4.63 -13.3 5.27 -12.99 5.89 -12.66 6.51 -12.31 7.1 -11.94 7.68 -11.55 8.23 -11.13 8.76 -10.71 9.28 -10.25 9.77 -9.77 10.25 -9.28 10.7 -8.76 11.13 -8.23 11.55 -7.67 11.94 -7.09 12.31 -6.51 12.66 -5.89 12.98 -5.27 13.3 -4.63 13.6 -3.96 13.87 -3.28 14.14 -2.59 14.39 -1.87 14.62 -1.14 14.85 -0.39 15.08 -146.22 0 0.57 -22.53 1.71 -22.28 2.82 -21.99 3.89 -21.65 4.94 -21.28 5.97 -20.89 6.96 -20.44 7.91 -19.99 8.85 -19.5 9.75 -18.96 10.62 -18.42 11.47 -17.84 12.28 -17.24 13.07 -16.61 13.83 -15.95 14.57 -15.27 15.27 -14.56 15.95 -13.83 16.61 -13.07 17.24 -12.28 17.84 -11.46 18.42 -10.62 18.96 -9.75 19.49 -8.85 19.98 -7.91 20.44 -6.95 20.88 -5.96 21.28 -4.94 21.65 -3.89 21.98 -2.82 22.28 -1.71 22.52 -0.57 0 0z"/>
  </g>
  <path class="fil2" d="M2297.7 711.26l1212.3 0 0 1818.45 -1212.3 0 0 -1818.45zm1212.3 2180.01l0 606.14 -1212.3 0 0 -606.14 1212.3 0z"/>
  <path class="fil2" d="M723.83 711.26l1212.3 0 0 669.95 -1212.3 0 0 -669.95zm1212.3 1031.52l0 1754.64 -1212.3 0 0 -1754.64 1212.3 0z"/>
 </g>
</svg>
