<?xml version="1.0" encoding="UTF-8"?>
<!DOCTYPE svg PUBLIC "-//W3C//DTD SVG 1.1//EN" "http://www.w3.org/Graphics/SVG/1.1/DTD/svg11.dtd">
<!-- Creator: CorelDRAW 2020 (64 Bit) -->
<svg xmlns="http://www.w3.org/2000/svg" xml:space="preserve" width="110.067mm" height="122.362mm" version="1.1" style="shape-rendering:geometricPrecision; text-rendering:geometricPrecision; image-rendering:optimizeQuality; fill-rule:evenodd; clip-rule:evenodd"
viewBox="0 0 2712.76 3015.8"
 xmlns:xlink="http://www.w3.org/1999/xlink"
 xmlns:xodm="http://www.corel.com/coreldraw/odm/2003">
 <defs>
  <style type="text/css">
   <![CDATA[
    .fil2 {fill:none}
    .fil1 {fill:black}
    .fil0 {fill:#F58634;fill-rule:nonzero}
   ]]>
  </style>
 </defs>
 <g id="Camada_x0020_1">
  <metadata id="CorelCorpID_0Corel-Layer"/>
  <path class="fil0" d="M1327.56 3014.9c-1,0.87 -1.68,1.46 0.03,0.04l-0.03 -0.04z"/>
  <polygon class="fil0" points="1327.78,3014.71 1327.56,3014.9 1327.59,3014.94 1327.81,3014.76 "/>
  <polygon class="fil0" points="1328.44,3014.16 1328.44,3014.13 1328.09,3014.43 "/>
  <path class="fil0" d="M1339.28 3000.18c-0.09,0.19 -0.13,0.29 0.02,0.01l-0.02 -0.01z"/>
  <path class="fil0" d="M1208.98 2735.55l-0.02 0.01c-0.19,-0.34 -0.1,-0.2 0.02,-0.01z"/>
  <polygon class="fil0" points="1208.99,2735.54 1209.04,2735.64 "/>
  <polygon class="fil0" points="877.05,2555.05 877.04,2555 877.01,2555.01 877.18,2555.7 "/>
  <path class="fil0" d="M254.7 2718.01c-0.12,-0.06 -0.1,-0.05 0,0z"/>
  <path class="fil0" d="M254.32 2718.03c-0.47,-0.21 -0.29,-0.13 0,0z"/>
  <polygon class="fil1" points="838.71,2712.76 1874.05,1356.38 838.71,0 838.71,409.39 1561.56,1356.38 838.71,2303.37 "/>
  <rect class="fil2" x="0" y="0" width="2712.76" height="2712.76"/>
 </g>
</svg>
