<?xml version="1.0" encoding="UTF-8"?>
<!DOCTYPE svg PUBLIC "-//W3C//DTD SVG 1.1//EN" "http://www.w3.org/Graphics/SVG/1.1/DTD/svg11.dtd">
<!-- Creator: CorelDRAW 2020 (64 Bit) -->
<svg xmlns="http://www.w3.org/2000/svg" xml:space="preserve" width="148.872mm" height="114.844mm" version="1.1" style="shape-rendering:geometricPrecision; text-rendering:geometricPrecision; image-rendering:optimizeQuality; fill-rule:evenodd; clip-rule:evenodd"
viewBox="0 0 14755.22 11382.55"
 xmlns:xlink="http://www.w3.org/1999/xlink"
 xmlns:xodm="http://www.corel.com/coreldraw/odm/2003">
 <defs>
  <style type="text/css">
   <![CDATA[
    .str1 {stroke:black;stroke-width:461.54;stroke-miterlimit:22.9256}
    .str0 {stroke:black;stroke-width:461.54;stroke-miterlimit:22.9256}
    .fil0 {fill:none}
    .fil2 {fill:#F58634;fill-rule:nonzero}
    .fil1 {fill:black;fill-rule:nonzero}
   ]]>
  </style>
 </defs>
 <g id="Camada_x0020_1">
  <metadata id="CorelCorpID_0Corel-Layer"/>
  <path class="fil0 str0" d="M5685.47 6524.49c-539.16,0 -1060.5,-240.74 -1468.54,-677.62 -396.76,-426.14 -639.07,-994.41 -681.82,-1599.65 -45.63,-645.63 151.31,-1239.34 554.37,-1672.03 403.07,-432.69 966.61,-666.09 1595.99,-666.09 624.91,0 1190.04,237.59 1591.78,669.23 405.68,435.84 603.15,1028.5 557.51,1668.62l0 0c-43.8,606.03 -285.84,1174.04 -681.82,1599.65 -406.99,437.15 -928.06,677.89 -1467.48,677.89zm1730.77 -2307.69l0 0zm60.45 6923.08l-5248.04 0c-1.22,0 -2.65,0 -3.89,0 -223.92,0 -435.33,-103.27 -573.01,-279.81 -105.3,-138.05 -162.48,-307.06 -162.48,-480.73 0,-65.89 8.23,-131.87 24.48,-195.63 220.81,-886.63 767.83,-1621.94 1581.82,-2126.22 695.71,-430.75 1574.23,-675.23 2484.61,-692.77"/>
  <path class="fil0 str1" d="M11139.87 5752.24l0 -4154.67c0,-751.73 -615.05,-1366.8 -1366.81,-1366.8l-8175.48 0c-751.76,0 -1366.81,615.07 -1366.81,1366.8l0 8175.51c0,751.74 615.05,1366.8 1366.81,1366.8l5879.11 0"/>
  <path class="fil1" d="M9346.25 7444.97c12.93,0.64 27.6,1.71 43.94,3.19l12.09 0.98c252.04,25.28 479.14,133.37 653.79,296.75 9.33,7.73 18.39,15.95 27.13,24.69 176.94,176.94 294.67,414.54 321.38,680.94l-0.16 0.01 0.16 1.52c1.99,20.35 3.4,38.56 4.19,54.38 1.59,32.2 2.43,50.61 2.43,53.78 0,308.82 -125.25,588.5 -327.71,790.94 -202.44,202.46 -482.11,327.71 -790.95,327.71 -308.82,0 -588.49,-125.24 -790.94,-327.71 -202.46,-202.44 -327.71,-482.12 -327.71,-790.94 0,-308.82 125.24,-588.5 327.71,-790.95 202.44,-202.44 482.12,-327.71 790.94,-327.71 2.79,0 21.36,0.84 53.71,2.42zm-40.18 781.19c-1.23,0.12 2.11,0.74 -13.53,0.74 -92.31,0 -175.91,37.43 -236.39,97.9 -60.49,60.49 -97.91,144.08 -97.91,236.4 0,92.31 37.43,175.9 97.91,236.39 60.48,60.48 144.07,97.9 236.39,97.9 92.32,0 175.91,-37.43 236.4,-97.9 60.48,-60.49 97.9,-144.07 97.9,-236.39 0,-20.35 1.07,-8.42 0.65,-17.02l-0.99 -16.1 -0.14 0.01c-7.82,-77.98 -43.65,-148.9 -97.72,-202.97 -4.84,-4.84 -9.51,-9.76 -14.04,-14.79 -46.42,-41.37 -104.52,-69.95 -168.84,-80.35 -13.41,-0.61 -26.66,-1.9 -39.69,-3.83zm2197.35 374.01l-0.39 19.72 346.54 271.8c10.68,8.35 20.81,17.14 30.39,26.33 48.91,45.52 87.99,99.48 115.66,158.53 32.48,69.26 49.94,143.53 49.94,217.61 0,44.1 -6.14,88.83 -18.02,133.02 -11.54,42.85 -29.03,84.81 -52.18,124.67l-487.24 842.94 0.21 0.12c-46.27,77.97 -111.85,141.15 -188.82,184.97 -77.15,43.93 -164.34,68.17 -253.73,68.17 -26.6,0 -57.63,-3.24 -92.63,-9.68 -33.74,-6.19 -64.04,-14.35 -90.38,-24.38 -9.31,-3.55 -18.41,-7.41 -27.29,-11.58l-387.76 -156.14c-17.26,10.71 -34.41,21.04 -51.43,30.95 -15.92,9.27 -32,18.38 -48.27,27.31l-61.17 435.35 -2.17 13.67 0.64 0.12c-21.15,121.1 -84.43,226.9 -173.71,303.56 -87.73,75.32 -201.7,121.16 -325.92,123.76l-7.66 0.05 0 1.49 -970.98 0c-26.67,0 -52.73,-2.68 -77.9,-7.75 -93.23,-14.66 -178.96,-54.34 -249.4,-112.58l-0.75 0.9c-87.78,-72.82 -151.62,-175.51 -176.26,-295.3 -1.68,-8.2 -3.04,-16.4 -4.17,-24.57l-0.42 0.06 -61.12 -435c-17.34,-9.49 -34.43,-19.16 -51.28,-29.02 -16.32,-9.55 -32.63,-19.4 -48.91,-29.55l-408.68 164.51 -6.37 2.46 0.24 0.6c-26.34,10.01 -56.62,18.19 -90.41,24.39 -34.89,6.4 -65.95,9.68 -92.67,9.68 -89.28,0 -176.48,-24.21 -253.71,-68.15 -76.87,-43.75 -142.44,-106.88 -188.79,-184.91 -2.74,-4.62 -5.33,-9.29 -7.85,-13.97l-479.18 -829.08c-23.11,-39.76 -40.62,-81.75 -52.2,-124.7 -11.91,-44.12 -18.03,-88.87 -18.03,-133.01 0,-75.31 17.45,-150.07 49.97,-219.16 6.33,-13.45 13.37,-26.33 20.98,-38.69 30.54,-53.01 69.62,-100.02 115.95,-138.38 3.56,-2.95 7.19,-5.8 10.81,-8.6l343.98 -270.06c-1.31,-29.61 -2.01,-50.62 -2.01,-61.79 0,-10.74 0.62,-30.34 1.83,-58.04l-347.54 -273.02c-12.97,-10.19 -25.11,-21.04 -36.43,-32.47 -45.7,-44.29 -82.51,-96.49 -109,-153.57 -31.37,-67.6 -48.17,-141.04 -48.17,-215.57 0,-43.99 6.11,-88.76 18.01,-132.99 11.53,-42.83 29.02,-84.75 52.18,-124.67l487.24 -842.93 -0.22 -0.12c46.25,-77.96 111.84,-141.11 188.82,-184.98 77.19,-43.94 164.38,-68.17 253.74,-68.17 26.61,0 57.65,3.25 92.63,9.68 33.75,6.19 64.05,14.36 90.37,24.38 9.32,3.55 18.42,7.41 27.29,11.57l387.77 156.15c17.26,-10.71 34.4,-21.04 51.41,-30.95 15.93,-9.27 32.02,-18.38 48.28,-27.31l61.18 -435.35 2.17 -13.67 -0.64 -0.12c21.15,-121.1 84.45,-226.91 173.71,-303.56 87.73,-75.33 201.72,-121.16 325.92,-123.76l7.66 -0.05 0 -1.49 970.97 0c25.43,0 50.27,2.45 74.36,7.07 95.77,14.02 183.03,53.73 253.68,112.36 16.15,13.36 30.92,27.74 44.36,42.97 65.01,68.28 111.85,154.76 131.91,252.34 1.68,8.2 3.05,16.4 4.18,24.57l0.42 -0.06 61.12 435c17.34,9.49 34.43,19.16 51.27,29.02 16.32,9.55 32.63,19.4 48.91,29.55l408.69 -164.51 6.36 -2.46 -0.23 -0.6c26.35,-10.02 56.63,-18.19 90.4,-24.39 34.92,-6.41 65.98,-9.68 92.68,-9.68 89.31,0 176.54,24.22 253.7,68.15 76.93,43.76 142.5,106.89 188.8,184.91 2.74,4.62 5.32,9.29 7.85,13.97l479.17 829.08c23.12,39.79 40.68,81.78 52.21,124.7 11.91,44.12 18.03,88.86 18.03,133.01 0,75.37 -17.46,150.12 -49.98,219.15 -6.29,13.35 -13.28,26.17 -20.84,38.46 -30.55,53.14 -69.68,100.22 -116.08,138.62 -3.57,2.95 -7.18,5.8 -10.82,8.6l-344.9 270.79c1.31,30.17 2.03,51.13 2.03,60.74 0,13.15 -0.65,26.16 -1.92,38.97zm-785.5 50.55c1.85,-25.32 3.16,-46.85 3.91,-64.36 -0.53,-8.33 -0.82,-16.71 -0.82,-25.16 0,-35.06 -0.07,-51.64 -0.18,-54.05l-3.39 -42.7 -1.13 -11.1c-0.65,-7.59 0.5,0.97 -0.35,-19.99l-0.24 -3.89c-1.15,-24.24 -1.73,-20.02 -1.73,-26.54 0,-86.55 20.36,-171.76 58.12,-249.58 37.86,-78.08 92.69,-147.25 161.45,-201.45l248.16 -194.84 -251.49 -435.11 -291.75 117.44c-34.78,13.97 -70.05,24.46 -105.29,31.26 -37.53,7.27 -73.74,10.97 -108.03,10.97 -57.14,0 -114.77,-9.11 -170.81,-26.73 -54.15,-17.07 -106.99,-43.2 -156.47,-77.88 -29.31,-20.46 -60.64,-40.49 -93.74,-59.86 -25.79,-15.09 -51.42,-29.04 -76.74,-41.72 -5.53,-2.31 -11.05,-4.74 -16.53,-7.32 -87.37,-41.56 -161.46,-103.61 -217.07,-179.08 -55.06,-74.77 -91.97,-163.19 -105.68,-258.35l0.22 -0.03 -43.07 -306.45 -504.78 0 -43.45 309.15c-13.25,95.18 -49.32,183.33 -103.31,257.61 -54.47,74.9 -127.58,136.84 -214.36,178.84 -32.78,15.86 -65.67,33.43 -98.37,52.47 -26.99,15.71 -52.2,31.35 -75.53,46.81 -5.51,4.28 -11.17,8.45 -16.97,12.49 -47.36,33 -100.37,58.76 -156.99,76.51 -56.15,17.64 -113.93,26.8 -171.23,26.8 -33.9,0 -70.11,-3.69 -107.95,-10.92 -23.61,-4.53 -48.44,-11.3 -74.3,-20.22 -10.36,-3.19 -20.68,-6.81 -30.93,-10.92l-291.82 -117.51 -251.53 435.17 247.01 194.03 -0.58 0.75c70.51,55.49 125.51,123.79 162.12,199.04 37.78,77.59 58.16,163.31 58.16,251.04 0,12.47 -0.55,-2.61 -1.54,19.14l-0.16 5.31c-0.99,23.2 0.24,14.33 -0.49,23.04l-1.28 -0.1 -0.25 3.16c-1.1,12.21 -2.23,29.54 -3.34,52.86 -0.11,2.38 -0.18,19.15 -0.18,52.09 0,32.98 0.08,49.6 0.22,52.57l4.83 55.61 -1.23 0.11 0.16 1.76c0.76,7.27 1.32,14.61 1.67,22.01 1.19,24.41 1.74,21.23 1.74,26.95 0,86.15 -20.3,171.27 -57.96,249.29 -33.86,70.09 -81.7,133.17 -141.34,184.71 -6.37,5.71 -12.92,11.26 -19.73,16.61l-248.16 194.84 251.48 435.11 291.76 -117.44c34.74,-13.96 70.02,-24.43 105.29,-31.27 37.53,-7.27 73.76,-10.97 108.02,-10.97 57.22,0 114.84,9.11 170.81,26.74 54.17,17.03 106.97,43.2 156.47,77.88 29.31,20.46 60.65,40.49 93.75,59.86 25.78,15.09 51.41,29.04 76.74,41.72 5.53,2.31 11.05,4.74 16.52,7.32 87.39,41.56 161.47,103.62 217.07,179.08 55.06,74.77 91.98,163.2 105.69,258.35l-0.22 0.03 43.07 306.44 504.78 0 43.45 -309.15c13.24,-95.17 49.32,-183.35 103.31,-257.62 54.48,-74.91 127.61,-136.86 214.35,-178.83 32.78,-15.86 65.66,-33.42 98.36,-52.46 34.28,-19.97 65.71,-39.81 94.05,-59.31l0.23 0.33c49.51,-34.28 101.89,-60.09 155.23,-76.84 56.19,-17.65 113.94,-26.8 171.23,-26.8 33.91,0 70.12,3.69 107.94,10.92 23.64,4.54 48.5,11.31 74.37,20.25 10.34,3.17 20.64,6.8 30.86,10.89l291.83 117.52 252 -436.01 -309.65 -242.87c-116.78,-81.49 -184.75,-224.02 -163.9,-374.73 3.9,-27.89 7.12,-58.81 9.61,-92.76zm-3630.69 -250.96l0.41 -6.89c0.1,-2.95 -0.08,-0.02 -0.35,4.17l-0.06 2.72zm4409.63 -10.69c-0.07,-1.62 -0.12,-2 0,0z"/>
  <polygon class="fil2" points="14754.72,5961.6 14754.69,5961.4 14754.55,5961.43 14755.22,5964.23 "/>
  <path class="fil2" d="M12251.99 6616.94c-0.49,-0.25 -0.4,-0.19 0,0z"/>
  <path class="fil2" d="M12250.48 6617c-1.88,-0.83 -1.18,-0.51 0,0z"/>
  <path class="fil2" d="M12039.44 10234.95l0.1 -0.06c1.11,1.97 0.54,1.07 -0.1,0.06z"/>
  <polygon class="fil2" points="12039.43,10234.95 12039.33,10234.78 "/>
  <path class="fil2" d="M13374.28 10960.79l0.04 0.2 0.12 -0.02c-0.56,-2.37 -1.1,-4.8 -0.16,-0.18z"/>
 </g>
</svg>
