<?xml version="1.0" encoding="UTF-8"?>
<!DOCTYPE svg PUBLIC "-//W3C//DTD SVG 1.1//EN" "http://www.w3.org/Graphics/SVG/1.1/DTD/svg11.dtd">
<!-- Creator: CorelDRAW 2020 (64 Bit) -->
<svg xmlns="http://www.w3.org/2000/svg" xml:space="preserve" width="103.417mm" height="26.6986mm" version="1.1" style="shape-rendering:geometricPrecision; text-rendering:geometricPrecision; image-rendering:optimizeQuality; fill-rule:evenodd; clip-rule:evenodd"
viewBox="0 0 10341.68 2669.86"
 xmlns:xlink="http://www.w3.org/1999/xlink"
 xmlns:xodm="http://www.corel.com/coreldraw/odm/2003">
 <defs>
  <style type="text/css">
   <![CDATA[
    .fil0 {fill:#336699}
    .fil1 {fill:#336699;fill-rule:nonzero}
   ]]>
  </style>
 </defs>
 <g id="Camada_x0020_1">
  <metadata id="CorelCorpID_0Corel-Layer"/>
  <g id="_2653338750176">
   <path class="fil0" d="M706.09 3.61l1959.85 -0.81 0 1960.66c0,389.58 -318.79,708.37 -708.37,708.37l-1959.85 0.81 0 -1960.66c0,-389.61 318.76,-708.21 708.37,-708.37zm1497.31 680.63l-260.04 257.33c-164.49,-173.96 -356.48,-260.94 -575.5,-260.94 -190.64,0 -350.63,63.09 -479.52,189.73 -128.89,126.64 -193.33,280.32 -193.33,461.49 0,187.03 66.69,345.66 200.54,475.91 133.85,130.24 298.8,195.14 494.84,195.14 127.54,0 235.25,-27.04 322.68,-80.67 87.43,-53.63 158.18,-137.46 211.81,-251.93l-561.98 0 0 -346.11 976.15 0 2.7 81.57c0,169.9 -44.16,330.79 -132.04,483.12 -88.33,151.87 -202.35,268.14 -342.06,348.36 -140.16,79.77 -304.65,119.88 -493.03,119.88 -201.45,0 -381.27,-43.71 -539.46,-131.14 -158.18,-87.88 -283.02,-212.27 -375.4,-374.06 -91.94,-162.24 -137.91,-336.65 -137.91,-524.13 0,-256.88 85.18,-480.41 255.08,-670.14 201.45,-226.24 464.19,-339.36 787.32,-339.36 169,0 327.19,31.1 474.56,93.74 123.93,52.73 245.61,143.76 364.59,272.21z"/>
   <path class="fil1" d="M4056.27 1051.43l289.97 0 0 998.06c0,196.98 -39.9,341.96 -119.35,434.6 -106.55,125.58 -267.28,188.55 -482.19,188.55 -114.24,0 -210.53,-14.28 -288.88,-42.84 -77.98,-28.55 -143.89,-70.66 -197.34,-126.31 -53.82,-55.29 -93.73,-122.65 -119.36,-202.1l324.02 0c28.56,32.58 65.54,57.11 110.94,73.96 45.03,16.47 98.49,24.89 160.36,24.89 79.09,0 142.43,-12.08 190.39,-36.24 48.33,-24.17 82.01,-55.29 101.78,-93.37 19.78,-38.44 29.66,-104.34 29.66,-198.07 -51.62,51.62 -105.81,88.97 -162.56,111.3 -56.75,22.7 -120.82,34.05 -192.58,34.05 -157.07,0 -289.98,-56.38 -398.35,-169.15 -108.38,-112.77 -162.56,-255.56 -162.56,-428.37 0,-184.9 57.48,-333.54 172.08,-445.58 104.34,-101.42 228.46,-151.94 372.72,-151.94 67.36,0 131.07,12.45 191.12,36.98 59.67,24.53 119.72,65.17 180.13,121.55l0 -129.97zm-306.45 246.03c-92.63,0 -169.15,30.76 -229.19,92.27 -60.42,61.51 -90.44,138.76 -90.44,231.76 0,96.65 30.76,176.1 92.63,237.98 61.51,61.88 139.13,92.63 232.49,92.63 91.17,0 166.23,-30.39 225.54,-90.8 58.95,-60.41 88.6,-139.49 88.6,-237.62 0,-96.65 -29.65,-175.01 -89.33,-235.42 -59.68,-60.41 -136.2,-90.8 -230.3,-90.8z"/>
   <path id="1" class="fil1" d="M5808.56 1717.05l-939.12 0c13.54,83.11 49.79,149.38 108.37,198.8 58.58,49.07 133.64,73.6 224.44,73.6 109.1,0 202.47,-38.45 280.82,-115.33l245.3 116.06c-61.14,87.14 -134.73,151.58 -220.04,193.68 -85.67,41.74 -187.09,62.61 -304.62,62.61 -182.33,0 -330.98,-57.48 -445.58,-172.81 -114.59,-114.97 -172.08,-259.22 -172.08,-432.4 0,-177.57 57.49,-325.12 172.08,-442.29 114.6,-117.52 258.13,-176.1 431.3,-176.1 183.43,0 332.81,58.58 447.78,175.37 114.96,117.16 172.45,271.3 172.45,463.52l-1.1 55.29zm-291.08 -228.47c-19.4,-63.7 -57.48,-115.69 -114.23,-155.6 -57.11,-39.91 -123.02,-59.68 -198.44,-59.68 -81.65,0 -153.04,22.33 -214.92,67.37 -38.44,27.82 -74.32,77.25 -107.27,147.91l634.86 0z"/>
   <path id="2" class="fil1" d="M6761.22 1216.55l-180.86 181.96c-73.23,-73.22 -139.86,-109.83 -199.91,-109.83 -32.59,0 -58.21,6.95 -76.89,20.87 -18.67,13.91 -27.82,31.12 -27.82,51.62 0,15.74 5.86,30.02 17.57,43.2 11.72,13.18 41.01,31.12 87.51,54.19l106.91 53.45c112.76,55.29 190.38,112.04 232.49,169.52 42.1,57.85 62.97,125.22 62.97,202.84 0,103.25 -38.08,189.65 -114.23,258.48 -76.16,69.2 -178.31,103.62 -306.45,103.62 -169.88,0 -306.08,-66.27 -407.5,-199.18l180.5 -196.24c34.42,39.91 74.69,72.49 121.19,97.02 46.13,24.53 87.14,36.98 123.02,36.98 38.44,0 69.93,-9.15 93.36,-27.82 23.8,-18.68 35.52,-39.91 35.52,-64.08 0,-45.03 -42.48,-88.97 -127.78,-131.44l-98.49 -49.42c-188.92,-94.83 -283.39,-213.46 -283.39,-355.88 0,-91.9 35.52,-170.62 106.55,-235.79 71.03,-65.17 161.83,-97.75 272.4,-97.75 75.79,0 146.81,16.84 213.82,50.16 66.63,33.31 123.02,81.28 169.51,143.52z"/>
   <polygon id="3" class="fil1" points="7049,620.86 7341.17,620.86 7341.17,1051.43 7514.72,1051.43 7514.72,1304.05 7341.17,1304.05 7341.17,2217.91 7049,2217.91 7049,1304.05 6899.62,1304.05 6899.62,1051.43 7049,1051.43 "/>
   <path id="4" class="fil1" d="M8221.34 1022.87c110.2,0 213.82,27.46 310.84,82.38 97.39,54.92 172.82,129.24 227.37,223.33 54.55,94.47 81.65,195.88 81.65,304.99 0,109.84 -27.46,212.35 -82.02,307.91 -54.92,95.56 -129.61,170.25 -224.07,224.07 -94.83,53.82 -198.81,80.92 -312.67,80.92 -167.69,0 -310.84,-59.31 -429.1,-177.94 -118.63,-118.99 -177.94,-263.25 -177.94,-432.76 0,-181.97 67,-333.55 201,-454.74 117.53,-105.44 252.26,-158.16 404.94,-158.16zm4.39 274.59c-91.16,0 -166.95,31.49 -227.36,94.46 -60.41,63.34 -90.8,143.89 -90.8,242.38 0,101.05 30.02,183.07 89.7,245.67 59.68,62.61 135.47,94.1 227.37,94.1 91.53,0 167.68,-31.85 228.83,-95.19 60.77,-63.35 91.16,-144.99 91.16,-244.58 0,-99.95 -30.02,-180.87 -89.7,-243.47 -59.68,-62.25 -136.2,-93.37 -229.2,-93.37z"/>
   <path id="5" class="fil1" d="M9010.71 1051.43l252.63 0 0 148.28c27.1,-57.85 62.98,-101.79 107.64,-131.81 45.04,-30.02 94.1,-45.03 147.19,-45.03 37.71,0 77.25,9.88 118.62,30.02l-90.8 252.63c-34.05,-17.21 -62.24,-25.63 -84.21,-25.63 -44.66,0 -82.74,27.82 -113.5,83.48 -31.12,55.65 -46.49,164.75 -46.49,327.32l1.09 56.75 0 470.47 -292.17 0 0 -1166.48z"/>
   <path id="6" class="fil1" d="M9713.31 1051.43l252.63 0 0 148.28c27.1,-57.85 62.98,-101.79 107.64,-131.81 45.04,-30.02 94.1,-45.03 147.19,-45.03 37.71,0 77.25,9.88 118.62,30.02l-90.8 252.63c-34.05,-17.21 -62.24,-25.63 -84.21,-25.63 -44.66,0 -82.74,27.82 -113.5,83.48 -31.12,55.65 -46.49,164.75 -46.49,327.32l1.09 56.75 0 470.47 -292.17 0 0 -1166.48z"/>
  </g>
 </g>
</svg>
