<?xml version="1.0" encoding="UTF-8"?>
<!DOCTYPE svg PUBLIC "-//W3C//DTD SVG 1.1//EN" "http://www.w3.org/Graphics/SVG/1.1/DTD/svg11.dtd">
<!-- Creator: CorelDRAW 2020 (64 Bit) -->
<svg xmlns="http://www.w3.org/2000/svg" xml:space="preserve" width="26.6822mm" height="26.6984mm" version="1.1" style="shape-rendering:geometricPrecision; text-rendering:geometricPrecision; image-rendering:optimizeQuality; fill-rule:evenodd; clip-rule:evenodd"
viewBox="0 0 1870.39 1871.52"
 xmlns:xlink="http://www.w3.org/1999/xlink"
 xmlns:xodm="http://www.corel.com/coreldraw/odm/2003">
 <defs>
  <style type="text/css">
   <![CDATA[
    .fil0 {fill:#336699}
   ]]>
  </style>
 </defs>
 <g id="Camada_x0020_1">
  <metadata id="CorelCorpID_0Corel-Layer"/>
  <path class="fil0" d="M496.56 0.57l1373.83 -0.57 0 1374.4c0,273.09 -223.47,496.56 -496.56,496.56l-1373.83 0.57 0 -1374.4c0,-273.11 223.45,-496.45 496.56,-496.56zm1049.59 477.11l-182.28 180.38c-115.31,-121.94 -249.89,-182.92 -403.42,-182.92 -133.64,0 -245.79,44.23 -336.14,133 -90.35,88.77 -135.52,196.5 -135.52,323.5 0,131.11 46.75,242.3 140.58,333.61 93.83,91.3 209.45,136.79 346.88,136.79 89.4,0 164.91,-18.95 226.19,-56.55 61.29,-37.59 110.88,-96.36 148.48,-176.6l-393.94 0 0 -242.62 684.27 0 1.89 57.18c0,119.1 -30.96,231.88 -92.56,338.66 -61.92,106.46 -141.84,187.96 -239.78,244.2 -98.25,55.92 -213.56,84.03 -345.61,84.03 -141.21,0 -267.27,-30.64 -378.15,-91.93 -110.88,-61.6 -198.39,-148.8 -263.15,-262.21 -64.45,-113.73 -96.67,-235.99 -96.67,-367.41 0,-180.07 59.71,-336.76 178.81,-469.76 141.21,-158.59 325.39,-237.89 551.9,-237.89 118.47,0 229.36,21.8 332.66,65.71 86.87,36.96 172.17,100.77 255.57,190.82z"/>
 </g>
</svg>
